<svg width="96" height="96" viewBox="0 0 96 96" fill="none" xmlns="http://www.w3.org/2000/svg">
<path d="M88.2887 9.85771C83.3499 7.38388 76.045 10.6719 70.8622 14.581C61.9421 21.3088 52.4409 34.0643 47.5 42.7383C42.5591 34.0664 33.06 21.3109 24.1399 14.581C18.957 10.6699 11.6522 7.3818 6.71132 9.85771C5.01541 10.7093 2 15.1439 2 15.1439C2 15.1439 2 17.6219 2 19.9732C2 22.5239 3.48495 42.516 4.49009 46.126C6.69684 54.0543 12.4836 58.0797 18.9632 59.6064C15.3956 61.6378 11.495 66.5876 11.495 66.5876C11.495 66.5876 11.4661 69.7053 11.495 70.9225C11.5819 74.599 13.4846 78.4873 17.0626 82.1783C22.1069 87.3794 26.9361 89.9986 31.455 89.9986C32.3154 89.9986 33.1634 89.9051 33.9989 89.714C41.099 88.1043 45.3077 79.9766 47.4979 74.4639C49.6902 79.9766 53.899 88.1043 60.999 89.714C66.2398 90.9063 71.9335 88.366 77.9333 82.1783C81.6209 78.3751 83.5298 74.3601 83.505 70.5839C83.4967 69.483 83.505 66.4172 83.505 66.4172C83.505 66.4172 79.6002 61.6357 76.0306 59.6043C82.5102 58.0797 88.299 54.0543 90.5058 46.1239C91.515 42.5181 93 22.526 93 19.9732C93 17.9335 93 14.6787 93 14.6787C93 14.6787 90.1749 10.8049 88.2887 9.85771Z" fill="white"/>
<path d="M22.8583 12.184C32.8322 19.7113 43.5601 34.9718 47.5 43.1629C51.4399 34.9739 62.1678 19.7113 72.1417 12.184C79.3399 6.75239 91 2.54862 91 15.9216C91 18.5916 89.4775 38.3556 88.5826 41.5646C85.4776 52.7192 74.1614 55.564 64.0963 53.843C81.691 56.8522 86.1674 66.8247 76.5 76.7952C58.1409 95.7309 50.1141 72.0441 48.0551 65.9736C47.6781 64.8602 47.5021 64.3399 47.5 64.7832C47.4979 64.3399 47.3219 64.8602 46.9449 65.9736C44.8879 72.0441 36.8591 95.7309 18.5 76.7952C8.83264 66.8247 13.309 56.8522 30.9037 53.843C20.8366 55.564 9.52036 52.7192 6.41736 41.5646C5.5225 38.3556 4 18.5916 4 15.9216C4 2.54862 15.6621 6.75239 22.8583 12.184Z" fill="#B06B35"/>
<path d="M31.455 85.9986C26.934 85.9986 22.1048 83.3793 17.0626 78.1782C12.2975 73.2658 10.5044 68.0003 12.0121 63.3517C13.0151 60.2568 15.3977 57.6354 18.9632 55.6061C12.4836 54.0815 6.69684 50.056 4.49009 42.1255C3.48495 38.5155 2 18.5232 2 15.9725C2 10.8295 3.5863 7.42509 6.71132 5.85686C11.6522 3.383 18.955 6.66901 24.1378 10.5802C33.0558 17.3081 42.5591 30.0637 47.5 38.7378C52.4409 30.0637 61.9421 17.3081 70.8622 10.5802C76.045 6.67109 83.3499 3.383 88.2887 5.85686C91.4137 7.42509 93 10.8295 93 15.9725C93 18.5252 91.515 38.5176 90.5099 42.1255C88.3032 50.0539 82.5143 54.0815 76.0347 55.6061C79.6044 57.6375 81.9849 60.2588 82.9879 63.3517C84.4956 67.9982 82.7004 73.2637 77.9374 78.1782C71.9376 84.366 66.2439 86.9063 61.0032 85.714C53.901 84.1043 49.6923 75.9765 47.5021 70.4638C45.3098 75.9785 41.101 84.1043 34.003 85.714C33.1634 85.9051 32.3154 85.9986 31.455 85.9986ZM47.6241 62.498C49.0801 62.498 49.5558 63.9 50.0149 65.2606C51.26 68.9329 55.0489 80.1058 61.9132 81.6616C65.6483 82.5049 70.0452 80.3613 74.9717 75.2785C77.5486 72.624 80.3469 68.6214 79.0563 64.6374C77.7141 60.4998 72.1238 57.3031 63.7228 55.8657C62.5977 55.6726 61.8408 54.6008 62.0331 53.4687C62.2255 52.3367 63.2947 51.5765 64.4177 51.7696C64.4198 51.7696 64.4219 51.7696 64.426 51.7696C73.2489 53.2756 83.6766 51.2379 86.5287 41.0018C87.3497 38.0565 88.8636 18.5252 88.8636 15.9725C88.8636 12.5327 88.0467 10.3808 86.4397 9.57283C83.8317 8.26632 78.4524 10.0485 73.3461 13.8995C63.6463 21.2172 53.1834 36.1185 49.3614 44.0614C49.016 44.778 48.2921 45.235 47.5 45.235C46.7058 45.235 45.984 44.778 45.6386 44.0614C41.8166 36.1206 31.3578 21.2193 21.656 13.8995C16.5497 10.0485 11.1703 8.26425 8.56027 9.57076C6.95329 10.3808 6.13636 12.5327 6.13636 15.9725C6.13636 18.5252 7.65027 38.0565 8.47341 41.006C11.3254 51.24 21.7532 53.2839 30.5761 51.7738C30.5802 51.7738 30.5823 51.7738 30.5843 51.7738C31.7136 51.5827 32.7787 52.3408 32.969 53.4729C33.1592 54.6049 32.4043 55.6767 31.2792 55.8699C22.8783 57.3073 17.288 60.5039 15.9457 64.6395C14.6531 68.6234 17.4535 72.6261 20.0304 75.2806C24.9568 80.3613 29.3393 82.5069 33.091 81.6636C39.9532 80.1058 43.7421 68.935 44.9872 65.2626C45.4608 63.8647 45.9654 62.4274 47.5021 62.5021C47.5434 62.5001 47.5827 62.498 47.6241 62.498Z" fill="white"/>
</svg>
