<svg width="108" height="108" viewBox="0 0 108 108" fill="none" xmlns="http://www.w3.org/2000/svg">
<g clip-path="url(#clip0_21_162)">
<path d="M18.36 33.0845H83.16V69.2728C83.16 71.721 82.6778 74.1451 81.7409 76.407C80.804 78.6688 79.4308 80.7239 77.6997 82.455C75.9686 84.1861 73.9135 85.5593 71.6517 86.4962C69.3899 87.433 66.9657 87.9152 64.5175 87.9152H37.1021C34.6456 87.9284 32.2107 87.4559 29.9374 86.5249C27.664 85.5939 25.5971 84.2228 23.8554 82.4904C22.1137 80.758 20.7316 78.6984 19.7885 76.43C18.8454 74.1617 18.36 71.7294 18.36 69.2728V33.0845Z" stroke="white" stroke-width="7" stroke-linecap="round" stroke-linejoin="round"/>
<path d="M61.452 8.68C62.8469 9.39708 64.0356 10.4599 64.9051 11.7674C65.7747 13.0748 66.2962 14.5835 66.42 16.15C66.42 21.13 61.452 20.5324 61.452 26.11M41.58 8.68C42.9749 9.39708 44.1636 10.4599 45.0331 11.7674C45.9027 13.0748 46.4242 14.5835 46.548 16.15C46.548 21.13 41.58 20.5324 41.58 26.11M4.32001 88.36H98.712C98.712 91.0016 97.6652 93.5349 95.8018 95.4028C93.9385 97.2706 91.4112 98.32 88.776 98.32H14.256C11.6208 98.32 9.09356 97.2706 7.23019 95.4028C5.36683 93.5349 4.32001 91.0016 4.32001 88.36ZM83.808 38.56H93.0236C95.8499 38.56 98.5604 39.6854 100.559 41.6887C102.557 43.692 103.68 46.409 103.68 49.2421V57.7828C103.673 60.6116 102.548 63.3222 100.55 65.3201C98.5523 67.318 95.8456 68.44 93.0236 68.44H83.808V38.56Z" stroke="white" stroke-width="6.5" stroke-linecap="round" stroke-linejoin="round"/>
<path d="M-940.5 -787.5H589.5V742.5H-940.5V-787.5Z" stroke="black" stroke-width="2" stroke-linecap="round" stroke-linejoin="round"/>
<path d="M50.2756 73.6844C50.0514 73.6844 49.8295 73.6401 49.6225 73.5539C49.4156 73.4677 49.2277 73.3413 49.0699 73.1821L37.5754 61.607C37.5428 61.5739 37.5115 61.5395 37.4814 61.504C36.2344 60.0223 35.5497 58.1485 35.5475 56.2119C35.5475 51.6842 39.2317 48 43.7594 48C45.0189 47.9981 46.2619 48.2868 47.3917 48.8436C48.5214 49.4005 49.5074 50.2106 50.273 51.2107C51.0389 50.2105 52.0253 49.4004 53.1553 48.8436C54.2854 48.2867 55.5287 47.998 56.7885 48C61.3162 48 65 51.6842 65 56.2119C64.9985 58.1121 64.3388 59.9532 63.1332 61.422C63.0852 61.4872 63.0324 61.5494 62.9743 61.6067L51.481 73.1817C51.3233 73.3411 51.1356 73.4676 50.9287 73.5539C50.7218 73.6401 50.4998 73.6845 50.2756 73.6844ZM49.6524 63.0538L50.2756 69.5743L46.5 67.5C47.2167 66.636 49.6512 64.1764 49.6524 63.0538C49.6524 60.3993 36.5 59 50.273 60C49.0355 59.9987 49.4556 54.6451 48.5609 55.5C47.6662 56.3549 52.0412 54.7501 51.9862 55.9864C51.9741 56.2497 49.3518 68.5 51.7722 56.7367C51.6436 56.9669 49.5697 63.7923 49.3518 63.9408C49.1454 64.0802 50.8046 57.5445 50.5586 57.5841C50.3126 57.6236 50.061 57.609 49.8213 57.5412C49.4734 57.4481 49.164 57.2471 48.9376 56.9672C48.7111 56.6872 48.5792 56.3426 48.5609 55.983C48.4399 53.4116 52.3135 64 49.7429 64C47.088 64 50.273 57.3459 50.273 60C50.273 61.1106 48.9456 62.1934 49.6524 63.0538Z" fill="white"/>
</g>
<defs>
<clipPath id="clip0_21_162">
<rect width="108" height="108" fill="white"/>
</clipPath>
</defs>
</svg>
