<svg width="24" height="24" viewBox="0 0 24 24" fill="none" xmlns="http://www.w3.org/2000/svg">
<path d="M15 4L14.002 5.14258C14.002 5.14258 12.6866 4.98828 12.0156 4.98828H12C11.329 4.98828 10.0137 5.14258 10.0137 5.14258L9.00391 4.00391C9.00391 4.00391 6.18114 4.32261 5.24414 4.59961C4.37614 4.85561 3.65524 5.44795 3.24024 6.25195C2.35024 7.97395 0.997001 11.5015 1 17.0195C3.126 19.4685 8.05095 20 8.12695 20L9 18.6562C9 18.6562 10.653 19.0195 12 19.0195H12.0137C13.3607 19.0195 15.0137 18.6562 15.0137 18.6562L15.9004 19.9961C15.9004 19.9961 20.0907 19.5095 23.0137 17.0195C23.0167 11.5015 21.6634 7.97295 20.7734 6.25195C20.3584 5.44895 19.6365 4.85561 18.7695 4.59961C17.8315 4.32161 15 4 15 4ZM15.4063 5.05664C16.3623 5.17564 17.9093 5.38759 18.4863 5.55859C19.0973 5.73959 19.5948 6.14989 19.8848 6.71289C20.6578 8.20889 21.9397 11.4419 22.0117 16.5449C20.0267 18.0639 17.5069 18.6893 16.3789 18.9062L15.916 18.207C17.2388 17.7057 18.1367 17.1543 18.1367 17.1543L17.6133 16.3027C17.6133 16.3027 14.8031 18.002 12 18.002C9.19689 18.002 6.38672 16.3027 6.38672 16.3027L5.86328 17.1543C5.86328 17.1543 6.76731 17.7102 8.09766 18.2129L7.63086 18.9297C6.27186 18.7117 3.47791 18.042 2.00391 16.625C2.06491 11.477 3.35386 8.21589 4.13086 6.71289C4.42086 6.14789 4.91634 5.73959 5.52734 5.55859C6.10334 5.38859 7.64956 5.17559 8.60156 5.05859L9.26367 5.80664L9.61133 6.19727L10.1309 6.13672C10.4809 6.09572 11.4977 5.98828 12.0137 5.98828C12.5147 5.98828 13.5348 6.09572 13.8848 6.13672L14.4082 6.19727L14.7559 5.80078L15.4063 5.05664ZM8.5 10C8.10218 10 7.72065 10.2107 7.43934 10.5858C7.15804 10.9609 7 11.4696 7 12C7 12.5304 7.15804 13.0391 7.43934 13.4142C7.72065 13.7893 8.10218 14 8.5 14C8.89783 14 9.27936 13.7893 9.56066 13.4142C9.84197 13.0391 10 12.5304 10 12C10 11.4696 9.84197 10.9609 9.56066 10.5858C9.27936 10.2107 8.89783 10 8.5 10ZM15.5 10C15.1022 10 14.7206 10.2107 14.4393 10.5858C14.158 10.9609 14 11.4696 14 12C14 12.5304 14.158 13.0391 14.4393 13.4142C14.7206 13.7893 15.1022 14 15.5 14C15.8978 14 16.2794 13.7893 16.5607 13.4142C16.842 13.0391 17 12.5304 17 12C17 11.4696 16.842 10.9609 16.5607 10.5858C16.2794 10.2107 15.8978 10 15.5 10Z" fill="white"/>
</svg>
