<svg xmlns="http://www.w3.org/2000/svg" version="1.1" xmlns:xlink="http://www.w3.org/1999/xlink" width="2000" height="671" viewBox="0 0 2000 671"><g transform="matrix(1,0,0,1,-1.2121212121212466,-2.2387291202289816)"><svg viewBox="0 0 396 133" data-background-color="#99592a" preserveAspectRatio="xMidYMid meet" height="671" width="2000" xmlns="http://www.w3.org/2000/svg" xmlns:xlink="http://www.w3.org/1999/xlink"><g id="tight-bounds" transform="matrix(1,0,0,1,0.2400000000000091,0.44374213560425346)"><svg viewBox="0 0 395.52 132.11251572879146" height="132.11251572879146" width="395.52"><g><svg viewBox="0 0 545.8005822491473 182.30958739677897" height="132.11251572879146" width="395.52"><g transform="matrix(1,0,0,1,0,42.655818588579805)"><svg viewBox="0 0 395.52 96.99795021961936" height="96.99795021961936" width="395.52"><g id="textblocktransform"><svg viewBox="0 0 395.52 96.99795021961936" height="96.99795021961936" width="395.52" id="textblock"><g><svg viewBox="0 0 395.52 96.99795021961936" height="96.99795021961936" width="395.52"><g transform="matrix(1,0,0,1,0,0)"><svg width="395.52" viewBox="1 -39.15 204.89 50.25" height="96.99795021961936" data-palette-color="#ffffff"><g class="wordmark-text-0" data-fill-palette-color="primary" id="text-0"><path d="M34.75 0L1 0 1-8.2 3.5-8.2 3.5-30.7 1-30.7 1-38.9 34.75-38.9 34.75-23.8 23.55-23.8 23.55-30.7 17.5-30.7 17.5-22.8 21.9-22.8 21.9-17.1 17.5-17.1 17.5-8.2 23.55-8.2 23.55-16.1 34.75-16.1 34.75 0ZM48.7 0.7Q42.4 0.7 36.55-1.3L36.55-1.3 36.55-8.7 44.65-8.7 44.65-8.2Q44.65-5.8 47.7-5.8L47.7-5.8Q50.4-5.8 50.4-7.65L50.4-7.65Q50.4-8.65 49.62-9.15 48.85-9.65 46.9-10L46.9-10 44.4-10.45Q36.55-11.85 36.55-19.35L36.55-19.35Q36.55-23.7 39.85-26.1 43.15-28.5 48.75-28.5L48.75-28.5Q55-28.5 59.3-26.4L59.3-26.4 59.3-19.45 51.7-19.45 51.7-19.95Q51.7-20.95 51.02-21.48 50.35-22 49.05-22L49.05-22Q46.55-22 46.55-20.4L46.55-20.4Q46.55-19.55 47.25-19.1 47.95-18.65 49.8-18.25L49.8-18.25 52.65-17.7Q57.1-16.85 59-14.55 60.9-12.25 60.9-8.65L60.9-8.65Q60.9-4.1 57.72-1.7 54.55 0.7 48.7 0.7L48.7 0.7ZM62.3 11.1L62.3 2.9 64.5 2.9 64.5-19.6 62.3-19.6 62.3-27.8 76-27.8 76-24.4Q77.25-26 79.22-27.25 81.2-28.5 83.75-28.5L83.75-28.5Q88.84-28.5 91.42-24.7 94-20.9 94-13.9L94-13.9Q94-6.9 91.42-3.1 88.84 0.7 83.75 0.7L83.75 0.7Q81.2 0.7 79.22-0.55 77.25-1.8 76-3.4L76-3.4 76 2.9 79.45 2.9 79.45 11.1 62.3 11.1ZM78.9-8.2Q80.34-8.2 81.07-8.97 81.8-9.75 81.8-11.4L81.8-11.4 81.8-16.4Q81.8-18.05 81.07-18.82 80.34-19.6 78.9-19.6L78.9-19.6Q77.45-19.6 76.72-18.82 76-18.05 76-16.4L76-16.4 76-11.4Q76-9.75 76.72-8.97 77.45-8.2 78.9-8.2L78.9-8.2ZM110.29 0.7Q103.19 0.7 99.19-3.03 95.19-6.75 95.19-13.9L95.19-13.9Q95.19-21.05 99.19-24.78 103.19-28.5 110.29-28.5L110.29-28.5Q117.34-28.5 120.47-24.83 123.59-21.15 123.59-15.7L123.59-15.7 123.59-12.1 107.39-12.1 107.39-11.8Q107.39-9.95 108.49-9.08 109.59-8.2 112.14-8.2L112.14-8.2Q115.19-8.2 117.94-8.65 120.69-9.1 122.74-9.8L122.74-9.8 122.74-1.8Q120.99-0.85 117.62-0.08 114.24 0.7 110.29 0.7L110.29 0.7ZM107.39-17.6L113.19-17.6 113.19-18.2Q113.19-19.9 112.47-20.65 111.74-21.4 110.29-21.4L110.29-21.4Q108.84-21.4 108.12-20.63 107.39-19.85 107.39-18.2L107.39-18.2 107.39-17.6ZM113.94-30.8L105.94-30.8 105.94-31.55 111.39-39.15 122.09-39.15 122.09-37.8 113.94-30.8ZM146.44-28.5Q147.44-28.5 148.34-28.3 149.24-28.1 149.84-27.8L149.84-27.8 149.84-18.25Q147.79-19.1 145.44-19.1L145.44-19.1Q142.29-19.1 140.59-17.45 138.89-15.8 138.89-12.55L138.89-12.55 138.89-8.2 143.39-8.2 143.39 0 125.19 0 125.19-8.2 127.39-8.2 127.39-19.6 125.19-19.6 125.19-27.8 138.89-27.8 138.89-24.15Q140.29-26.25 142.09-27.38 143.89-28.5 146.44-28.5L146.44-28.5ZM166.34 0.7Q159.24 0.7 155.24-3.03 151.24-6.75 151.24-13.9L151.24-13.9Q151.24-21.05 155.24-24.78 159.24-28.5 166.34-28.5L166.34-28.5Q173.39-28.5 176.51-24.83 179.64-21.15 179.64-15.7L179.64-15.7 179.64-12.1 163.44-12.1 163.44-11.8Q163.44-9.95 164.54-9.08 165.64-8.2 168.19-8.2L168.19-8.2Q171.24-8.2 173.99-8.65 176.74-9.1 178.79-9.8L178.79-9.8 178.79-1.8Q177.04-0.85 173.66-0.08 170.29 0.7 166.34 0.7L166.34 0.7ZM163.44-17.6L169.24-17.6 169.24-18.2Q169.24-19.9 168.51-20.65 167.79-21.4 166.34-21.4L166.34-21.4Q164.89-21.4 164.16-20.63 163.44-19.85 163.44-18.2L163.44-18.2 163.44-17.6ZM202.49-28.5Q203.49-28.5 204.39-28.3 205.29-28.1 205.89-27.8L205.89-27.8 205.89-18.25Q203.84-19.1 201.49-19.1L201.49-19.1Q198.34-19.1 196.64-17.45 194.94-15.8 194.94-12.55L194.94-12.55 194.94-8.2 199.44-8.2 199.44 0 181.24 0 181.24-8.2 183.44-8.2 183.44-19.6 181.24-19.6 181.24-27.8 194.94-27.8 194.94-24.15Q196.34-26.25 198.14-27.38 199.94-28.5 202.49-28.5L202.49-28.5Z" fill="#ffffff" data-fill-palette-color="primary"></path></g></svg></g></svg></g></svg></g></svg></g><g transform="matrix(1,0,0,1,418.4188880960468,0)"><svg viewBox="0 0 127.38169415310047 182.30958739677897" height="182.30958739677897" width="127.38169415310047"><g><svg xmlns="http://www.w3.org/2000/svg" xmlns:xlink="http://www.w3.org/1999/xlink" version="1.1" x="0" y="0" viewBox="19.61887447495465 7.31806029764224 56.78148325909322 81.26606302080208" enable-background="new 0 0 96 96" xml:space="preserve" height="182.30958739677897" width="127.38169415310047" class="icon-icon-0" data-fill-palette-color="accent" id="icon-0"><g fill="#ffffff" data-fill-palette-color="accent"><g fill="#ffffff" data-fill-palette-color="accent"><g fill="#ffffff" data-fill-palette-color="accent"><path d="M20.222 53.472C31.186 52.905 42.354 53.276 53.331 53.42 58.324 53.485 63.353 53.614 68.338 53.896 70.851 54.039 73.811 54.395 76.094 53.107 76.796 52.711 76.166 51.63 75.463 52.027 72.873 53.488 68.906 52.667 66.051 52.525 61.174 52.282 56.25 52.209 51.367 52.145 41.041 52.009 30.535 51.689 20.221 52.222 19.42 52.264 19.416 53.514 20.222 53.472" fill="#ffffff" data-fill-palette-color="accent"></path></g></g><g fill="#ffffff" data-fill-palette-color="accent"><g fill="#ffffff" data-fill-palette-color="accent"><path d="M26.986 52.752C26.986 62.603 28.272 70.396 33.343 78.975 34.747 81.351 36.136 85.17 38.565 86.788 40.882 88.332 44.216 87.97 46.862 88.283 50.476 88.711 53.8 88.956 57.014 87.058 59.779 85.425 61.896 80.847 63.446 78.221 67.792 70.857 68.925 62.006 69.015 53.594 69.024 52.787 67.774 52.788 67.765 53.594 67.694 60.182 66.863 66.682 64.642 72.907 63.609 75.805 61.897 78.457 60.246 81.034 57.184 85.814 54.096 87.693 48.343 87.202 45.716 86.978 42.792 86.913 40.238 86.286 37.293 85.562 34.933 79.209 33.551 76.871 28.998 69.168 28.236 61.501 28.236 52.753 28.236 51.946 26.986 51.946 26.986 52.752" fill="#ffffff" data-fill-palette-color="accent"></path></g></g><g fill="#ffffff" data-fill-palette-color="accent"><g fill="#ffffff" data-fill-palette-color="accent"><path d="M49.373 52.752C50.499 44.036 50.03 35.199 50.903 26.451 51.315 22.321 51.972 19.664 55.176 16.812 58.927 13.472 62.398 10.471 67.32 9.052 75.158 6.791 76.627 13.875 72.246 18.799 66.189 25.607 58.526 20.112 51.297 20.024 50.49 20.014 50.491 21.264 51.297 21.274 56.638 21.339 61.072 24.407 66.504 23.413 69.271 22.906 72.074 21.147 73.787 18.929 76.024 16.032 78.082 9.875 73.396 7.978 66.145 5.041 56.308 12.544 52.243 17.947 49.709 21.314 49.829 25.251 49.339 29.278 48.391 37.069 49.131 44.956 48.124 52.753 48.021 53.55 49.272 53.54 49.373 52.752" fill="#ffffff" data-fill-palette-color="accent"></path></g></g><g fill="#ffffff" data-fill-palette-color="accent"><g fill="#ffffff" data-fill-palette-color="accent"><path d="M49.779 33.561C42.868 31.198 44.406 21.743 39.046 17.994 35.226 15.322 33.186 20.793 32.318 23.656 30.872 28.426 30.187 34.445 33.217 38.737 37.481 44.777 45.432 39.434 49.858 36.879 50.555 36.476 49.926 35.396 49.227 35.799 46.504 37.372 44.055 39.202 40.961 40.009 36.595 41.148 33.559 38.164 32.653 34.264 31.678 30.069 32.863 24.988 34.559 21.12 37.641 14.095 41.629 24.521 42.827 27.324 44.202 30.539 45.994 33.586 49.447 34.766 50.212 35.027 50.537 33.819 49.779 33.561" fill="#ffffff" data-fill-palette-color="accent"></path></g></g></g></svg></g></svg></g></svg></g><defs></defs></svg><rect width="395.52" height="132.11251572879146" fill="none" stroke="none" visibility="hidden"></rect></g></svg></g></svg>