<svg width="24" height="24" viewBox="0 0 24 24" fill="none" xmlns="http://www.w3.org/2000/svg">
<path d="M12 2.00781C6.477 2.00781 2 6.48481 2 12.0078C2 17.5308 6.477 22.0078 12 22.0078C17.523 22.0078 22 17.5308 22 12.0078C22 6.48581 17.523 2.00781 12 2.00781ZM12 3.00781C16.963 3.00781 21 7.04481 21 12.0078C21 16.9708 16.963 21.0078 12 21.0078C11.9486 21.0078 11.8988 21.0009 11.8477 21H12.0039V20.5V13.002L15.5 13H16V12H15.5L12.0039 12.002V10.5039C12.0039 9.66889 12.6689 9.00391 13.5039 9.00391H15.5H16V8.00391H15.5H13.5039C12.1289 8.00391 11.0039 9.12892 11.0039 10.5039V12.002H9.5H9V13.002H9.5H11.0039V20.5V20.9492C6.50802 20.452 3 16.6342 3 12.0078C3 7.04481 7.037 3.00781 12 3.00781Z" fill="white"/>
</svg>
