<svg width="108" height="108" viewBox="0 0 108 108" fill="none" xmlns="http://www.w3.org/2000/svg">
<g clip-path="url(#clip0_21_162)">
<path d="M18.36 33.0845H83.16V69.2728C83.16 71.721 82.6778 74.1451 81.7409 76.407C80.804 78.6688 79.4308 80.7239 77.6997 82.455C75.9686 84.1861 73.9135 85.5593 71.6517 86.4962C69.3899 87.433 66.9657 87.9152 64.5175 87.9152H37.1021C34.6456 87.9284 32.2107 87.4559 29.9374 86.5249C27.664 85.5939 25.5971 84.2228 23.8554 82.4904C22.1137 80.758 20.7316 78.6984 19.7885 76.43C18.8454 74.1617 18.36 71.7294 18.36 69.2728V33.0845Z" stroke="white" stroke-width="7" stroke-linecap="round" stroke-linejoin="round"/>
<path d="M61.452 8.68C62.8469 9.39708 64.0356 10.4599 64.9051 11.7674C65.7747 13.0748 66.2962 14.5835 66.42 16.15C66.42 21.13 61.452 20.5324 61.452 26.11M41.58 8.68C42.9749 9.39708 44.1636 10.4599 45.0331 11.7674C45.9027 13.0748 46.4242 14.5835 46.548 16.15C46.548 21.13 41.58 20.5324 41.58 26.11M4.32001 88.36H98.712C98.712 91.0016 97.6652 93.5349 95.8018 95.4028C93.9385 97.2706 91.4112 98.32 88.776 98.32H14.256C11.6208 98.32 9.09356 97.2706 7.23019 95.4028C5.36683 93.5349 4.32001 91.0016 4.32001 88.36ZM83.808 38.56H93.0236C95.8499 38.56 98.5604 39.6854 100.559 41.6887C102.557 43.692 103.68 46.409 103.68 49.2421V57.7828C103.673 60.6116 102.548 63.3222 100.55 65.3201C98.5523 67.318 95.8456 68.44 93.0236 68.44H83.808V38.56Z" stroke="white" stroke-width="6.5" stroke-linecap="round" stroke-linejoin="round"/>
<path d="M-940.5 -787.5H589.5V742.5H-940.5V-787.5Z" stroke="black" stroke-width="2" stroke-linecap="round" stroke-linejoin="round"/>
</g>
<defs>
<clipPath id="clip0_21_162">
<rect width="108" height="108" fill="white"/>
</clipPath>
</defs>
</svg>
