<svg width="128" height="128" viewBox="0 0 128 128" fill="none" xmlns="http://www.w3.org/2000/svg">
<g clip-path="url(#clip0_127_29)">
<path d="M116.22 16.68C108 8.79998 95.16 4.87998 83.44 6.70998C75 7.99998 68.17 12.26 64.07 18.68C60.07 12.15 53.45 7.83998 45.14 6.45998C33.53 4.54998 20.14 8.64998 11.77 16.67C8.073 20.2118 5.1259 24.4608 3.10393 29.1645C1.08196 33.8681 0.0263977 38.9302 -1.6822e-06 44.05C-0.0604924 49.3607 0.947662 54.6294 2.9645 59.5427C4.98134 64.4559 7.96567 68.9134 11.74 72.65L59 119.94C59.6507 120.596 60.425 121.117 61.278 121.472C62.131 121.828 63.0459 122.011 63.97 122.011C64.8941 122.011 65.809 121.828 66.662 121.472C67.515 121.117 68.2893 120.596 68.94 119.94L116.23 72.64C120.009 68.9071 122.998 64.4524 125.02 59.5408C127.042 54.6292 128.055 49.3612 128 44.05C127.971 38.9312 126.913 33.8705 124.89 29.1687C122.866 24.4668 119.918 20.2198 116.22 16.68ZM112 68.4L64.73 115.7C64.6365 115.8 64.5234 115.88 64.3978 115.934C64.2723 115.988 64.1369 116.017 64 116.017C63.8631 116.017 63.7277 115.988 63.6022 115.934C63.4766 115.88 63.3635 115.8 63.27 115.7L16 68.4C12.7901 65.2283 10.2507 61.4435 8.53275 57.2707C6.81485 53.0979 5.95353 48.6223 6 44.11C6.02277 39.7883 6.91448 35.5152 8.6221 31.5451C10.3297 27.575 12.8184 23.9888 15.94 21C21.83 15.33 30.72 12 39.23 12C40.8848 11.9985 42.537 12.1323 44.17 12.4C49.17 13.22 55.84 15.72 59.59 22.96C60.0117 23.7687 60.6441 24.4485 61.4204 24.9273C62.1967 25.4061 63.088 25.6661 64 25.68C64.889 25.6822 65.762 25.4434 66.5262 24.9891C67.2904 24.5349 67.9172 23.882 68.34 23.1C72.23 15.9 79.16 13.44 84.28 12.64C94.05 11.12 105.18 14.48 111.98 21.01C115.115 23.9909 117.618 27.5724 119.339 31.541C121.061 35.5096 121.966 39.7842 122 44.11C122.046 48.6223 121.185 53.0979 119.467 57.2707C117.749 61.4435 115.21 65.2283 112 68.4Z" fill="white"/>
</g>
<defs>
<clipPath id="clip0_127_29">
<rect width="128" height="128" fill="white"/>
</clipPath>
</defs>
</svg>
