<svg width="100" height="100" viewBox="0 0 100 100" fill="none" xmlns="http://www.w3.org/2000/svg">
<path d="M90.3266 15.7539C85.3521 10.7793 78.7663 8.06042 71.7375 8.06042C64.7087 8.06042 58.1028 10.7994 53.1283 15.774L50.5302 18.372L47.8919 15.7337C42.9173 10.7592 36.2913 8 29.2625 8C22.2538 8 15.648 10.739 10.6935 15.6934C5.71899 20.668 2.97997 27.2739 3.00011 34.3027C3.00011 41.3315 5.75927 47.9172 10.7338 52.8918L48.5565 90.7145C49.0801 91.2381 49.785 91.5201 50.4698 91.5201C51.1545 91.5201 51.8594 91.2582 52.3831 90.7346L90.2863 52.9723C95.2609 47.9978 97.9999 41.3919 97.9999 34.3631C98.02 27.3343 95.3011 20.7284 90.3266 15.7539ZM86.4597 49.1256L50.4698 84.9746L14.5604 49.0652C10.613 45.1178 8.43788 39.8814 8.43788 34.3027C8.43788 28.7239 10.5928 23.4876 14.5403 19.5603C18.4675 15.633 23.7039 13.4579 29.2625 13.4579C34.8412 13.4579 40.0978 15.633 44.0452 19.5804L48.5968 24.132C49.6642 25.1995 51.3761 25.1995 52.4435 24.132L56.9548 19.6207C60.9022 15.6733 66.1587 13.4982 71.7174 13.4982C77.276 13.4982 82.5123 15.6733 86.4597 19.6006C90.4072 23.548 92.5621 28.7843 92.5621 34.3631C92.5823 39.9418 90.4072 45.1782 86.4597 49.1256Z" fill="white" stroke="white" stroke-width="1.33731"/>
</svg>
