<svg width="100" height="100" viewBox="0 0 100 100" fill="none" xmlns="http://www.w3.org/2000/svg">
<path d="M32.7236 7.5H66.2764C80.1656 7.50003 91.5 18.8322 91.5 32.7236V66.2764C91.5 80.166 80.166 91.5 66.2764 91.5H32.7236C18.8322 91.5 7.50003 80.1656 7.5 66.2764V32.7236C7.50003 18.8325 18.8325 7.50003 32.7236 7.5ZM32.7236 13.2109C21.9067 13.211 13.211 21.9067 13.2109 32.7236V66.2764C13.211 77.0907 21.907 85.789 32.7236 85.7891H66.2764C77.0904 85.789 85.789 77.0904 85.7891 66.2764V32.7236C85.789 21.907 77.0907 13.211 66.2764 13.2109H32.7236ZM49.5 27.6318C61.5373 27.6318 71.3682 37.4627 71.3682 49.5C71.3682 61.5373 61.5373 71.3682 49.5 71.3682C37.4627 71.3682 27.6318 61.5373 27.6318 49.5C27.6318 37.4627 37.4627 27.6318 49.5 27.6318ZM49.5 33.3418C40.5378 33.3418 33.3418 40.5378 33.3418 49.5C33.3418 58.4622 40.5378 65.6582 49.5 65.6582C58.4622 65.6582 65.6582 58.4622 65.6582 49.5C65.6582 40.5378 58.4622 33.3418 49.5 33.3418ZM71.8682 23.1582C74.0637 23.1582 75.8418 24.9363 75.8418 27.1318C75.8417 29.3273 74.0636 31.1055 71.8682 31.1055C69.6728 31.1053 67.8947 29.3272 67.8945 27.1318C67.8945 24.9364 69.6727 23.1583 71.8682 23.1582Z" fill="white" stroke="white"/>
</svg>
