<svg width="455" height="651" viewBox="0 0 455 651" fill="none" xmlns="http://www.w3.org/2000/svg">
<g clip-path="url(#clip0_665_55)">
<g clip-path="url(#clip1_665_55)">
<path d="M4.83154 369.732C92.6624 365.19 182.128 368.162 270.063 369.316C310.061 369.836 350.347 370.87 390.281 373.129C410.413 374.274 434.125 377.126 452.414 366.808C458.037 363.636 452.99 354.976 447.359 358.156C426.611 369.86 394.832 363.283 371.961 362.146C332.892 360.199 293.446 359.614 254.329 359.102C171.609 358.012 87.4474 355.449 4.82354 359.719C-1.59315 360.055 -1.6252 370.069 4.83154 369.732Z" fill="white"/>
<path d="M59.0168 363.964C59.0168 442.879 69.3188 505.308 109.942 574.033C121.189 593.066 132.316 623.66 151.774 636.621C170.336 648.99 197.044 646.09 218.24 648.598C247.192 652.026 273.82 653.989 299.567 638.784C321.716 625.703 338.675 589.029 351.092 567.992C385.907 509.001 394.984 438.097 395.705 370.709C395.777 364.245 385.763 364.253 385.691 370.709C385.122 423.485 378.465 475.555 360.673 525.423C352.398 548.638 338.683 569.883 325.458 590.527C300.928 628.819 276.191 643.871 230.104 639.938C209.06 638.143 185.636 637.623 165.177 632.6C141.585 626.8 122.679 575.907 111.608 557.178C75.1347 495.47 69.0304 434.051 69.0304 363.972C69.0304 357.507 59.0168 357.507 59.0168 363.964Z" fill="white"/>
<path d="M238.356 363.964C247.376 294.142 243.619 223.35 250.612 153.271C253.913 120.186 259.176 98.9014 284.843 76.0545C314.891 49.2983 342.697 25.2577 382.126 13.8903C444.915 -4.22218 456.683 52.5266 421.588 91.972C373.066 146.51 311.679 102.49 253.769 101.785C247.304 101.705 247.312 111.719 253.769 111.799C296.554 112.32 332.075 136.897 375.589 128.934C397.755 124.873 420.21 110.782 433.932 93.0135C451.853 69.806 468.339 20.4833 430.8 5.28669C372.714 -18.2412 293.911 41.8642 261.347 85.1468C241.047 112.119 242.009 143.658 238.083 175.918C230.489 238.33 236.417 301.512 228.35 363.972C227.525 370.357 237.547 370.277 238.356 363.964Z" fill="white"/>
<path d="M241.608 210.228C186.245 191.299 198.566 115.556 155.628 85.5233C125.026 64.1183 108.684 107.946 101.731 130.881C90.1471 169.092 84.6596 217.31 108.932 251.692C143.091 300.078 206.785 257.276 242.241 236.808C247.825 233.58 242.786 224.928 237.186 228.156C215.373 240.757 195.754 255.417 170.968 261.882C135.993 271.006 111.672 247.102 104.414 215.86C96.6038 182.254 106.097 141.551 119.683 110.565C144.372 54.289 176.32 137.81 185.917 160.264C196.932 186.019 211.287 210.428 238.948 219.881C245.077 221.972 247.68 212.295 241.608 210.228Z" fill="white"/>
</g>
</g>
<defs>
<clipPath id="clip0_665_55">
<rect width="454.868" height="651.01" fill="white"/>
</clipPath>
<clipPath id="clip1_665_55">
<rect width="454.868" height="651.01" fill="white"/>
</clipPath>
</defs>
</svg>
