<svg xmlns="http://www.w3.org/2000/svg"  viewBox="0 0 24 24" width="24px" height="24px"><path d="M 18 1 A 2 2 0 0 0 16.037109 2.625 C 15.626094 2.7049516 15.137219 2.8292652 14.609375 3.0625 C 13.550321 3.5304567 12.381956 4.4349307 11.777344 6.0078125 C 9.5815937 6.0488674 7.5834306 6.6834779 5.9433594 7.6914062 C 5.3551612 7.3417044 4.7405139 7 4 7 C 1.7997075 7 0 8.7997075 0 11 C 0 12.489788 0.88566001 13.711177 2.1015625 14.398438 C 2.2380528 16.488586 3.2906557 18.380058 4.9960938 19.716797 C 6.8157519 21.143063 9.2866627 22 12 22 C 14.713337 22 17.184248 21.143063 19.003906 19.716797 C 20.709344 18.380058 21.761946 16.488587 21.898438 14.398438 C 23.114339 13.711177 24 12.489788 24 11 C 24 8.7997075 22.200292 7 20 7 C 19.259486 7 18.644839 7.3417045 18.056641 7.6914062 C 16.573733 6.7800654 14.799029 6.1683409 12.849609 6.0292969 C 13.364208 4.9356977 14.202001 4.3352098 15.013672 3.9765625 C 15.414123 3.7996181 15.779894 3.7008542 16.103516 3.6308594 A 2 2 0 0 0 18 5 A 2 2 0 0 0 18 1 z M 12 7.5 A 0.50104376 0.50104376 0 0 0 12.009766 7.5 C 14.144401 7.5018797 16.08559 8.1138869 17.564453 9.0976562 L 18.019531 9.4003906 L 18.447266 9.0585938 C 18.883501 8.7094482 19.41299 8.5 20 8.5 C 21.389708 8.5 22.5 9.6102925 22.5 11 C 22.5 12.046527 21.863058 12.930116 20.960938 13.306641 L 20.5 13.5 L 20.5 14 C 20.5 15.743446 19.606217 17.339376 18.078125 18.537109 C 16.550033 19.734843 14.395663 20.5 12 20.5 C 9.6043373 20.5 7.4499668 19.734843 5.921875 18.537109 C 4.3937832 17.339376 3.5 15.743446 3.5 14 L 3.5 13.5 L 3.0390625 13.306641 C 2.1369412 12.930116 1.5 12.046527 1.5 11 C 1.5 9.6102925 2.6102925 8.5 4 8.5 C 4.5870104 8.5 5.1164986 8.7094482 5.5527344 9.0585938 L 5.9804688 9.4003906 L 6.4355469 9.0976562 C 7.9166872 8.1123719 9.8614814 7.5 12 7.5 z M 7.4492188 11 C 6.6462188 11 5.6289063 11.950094 5.6289062 12.996094 C 5.6289062 14.354094 6.09375 14.994141 7.34375 14.994141 C 8.29175 14.994141 9.0605469 14.864094 9.0605469 12.996094 C 9.0605469 11.893094 8.4962187 11 7.4492188 11 z M 16.550781 11 C 15.504781 11 14.939453 11.893094 14.939453 12.996094 C 14.939453 14.864094 15.70825 14.994141 16.65625 14.994141 C 17.90625 14.994141 18.371094 14.354094 18.371094 12.996094 C 18.371094 11.950094 17.353781 11 16.550781 11 z M 13.421875 15.980469 C 12.984719 15.979719 12.5045 15.984375 12 15.984375 C 9.982 15.984375 8.3457031 15.934906 8.3457031 16.378906 C 8.3457031 17.181906 9.982 18.892578 12 18.892578 C 14.018 18.892578 15.654297 17.181906 15.654297 16.378906 C 15.654297 16.032406 14.733344 15.982719 13.421875 15.980469 z"/></svg>