<svg width="217" height="201" viewBox="0 0 217 201" fill="none" xmlns="http://www.w3.org/2000/svg">
<g filter="url(#filter0_d_49_4327)">
<path d="M184.46 150.52C184.328 150.652 184.256 150.652 184.184 150.616C184.1 150.735 184.028 150.855 183.944 150.987C184.112 150.831 184.316 150.7 184.46 150.52Z" fill="#9D5D2C"/>
<path d="M192.826 99.473C192.826 99.473 192.826 99.425 192.826 99.3891C192.766 99.4849 192.707 99.5927 192.623 99.6286C192.719 99.6845 192.786 99.6326 192.826 99.473Z" fill="#9D5D2C"/>
<path d="M193.641 112.118C193.546 112.333 193.45 112.549 193.342 112.741C193.426 112.741 193.534 112.477 193.641 112.118Z" fill="#9D5D2C"/>
<path d="M188.607 144.485C188.235 144.964 187.84 145.455 187.432 145.934C187.708 145.862 188.235 145.347 188.607 144.485Z" fill="#9D5D2C"/>
<path d="M194.145 110.418C194.013 110.873 193.797 111.591 193.629 112.13C193.845 111.615 194.025 111.04 194.145 110.418Z" fill="#9D5D2C"/>
<path d="M186.282 80.7569C186.413 81.0203 186.569 81.2957 186.737 81.595C186.785 81.5831 186.845 81.5951 186.893 81.5592L186.27 80.7569H186.282Z" fill="#9D5D2C"/>
<path d="M184.975 32.1047C184.124 31.1109 183.848 31.027 183.8 31.3024C184.052 31.3982 184.412 31.6258 184.975 32.1047Z" fill="#9D5D2C"/>
<path d="M159.3 10.1556C159.539 10.2394 159.779 10.2992 160.007 10.3471C159.527 10.1675 159.18 10.0718 159.3 10.1556Z" fill="#9D5D2C"/>
<path d="M173.396 23.6268C173.36 23.7226 173.372 23.8304 173.408 23.9741C173.54 24.01 173.564 23.9142 173.396 23.6268Z" fill="#9D5D2C"/>
<path d="M17.6769 104.754L17.9765 104.047C17.8567 104.155 17.7608 104.43 17.6769 104.754Z" fill="#9D5D2C"/>
<path d="M24.5332 140.629C24.5692 140.737 24.6052 140.821 24.6411 140.916C24.6052 140.821 24.5692 140.725 24.5332 140.629Z" fill="#9D5D2C"/>
<path d="M24.9168 141.599C24.8209 141.36 24.737 141.144 24.6411 140.928C24.749 141.228 24.8449 141.491 24.9168 141.599Z" fill="#9D5D2C"/>
<path d="M186.497 79.2481C186.306 79.1883 186.078 79.0685 185.85 78.9488C185.634 78.841 185.598 78.9009 185.467 78.8769C185.407 78.8769 185.359 78.8769 185.311 78.9008C185.311 78.9128 185.239 78.9009 185.095 78.8171C184.987 78.7692 184.855 78.6973 184.711 78.6135C184.148 78.3021 183.549 77.895 183.417 77.9309C184.04 78.5176 184.508 78.8649 184.807 79.0925L185.011 79.2361C185.011 79.2361 185.035 79.2601 185.047 79.2721L185.083 79.308C185.083 79.308 185.143 79.4158 185.215 79.4876C185.538 79.8349 185.922 80.2899 186.282 80.7449C185.706 79.5954 185.634 78.829 186.497 79.2242V79.2481Z" fill="#9D5D2C"/>
<path d="M48.2549 20.3458C47.0682 21.4235 46.5168 22.0103 46.2771 22.3575C46.9603 21.675 47.6675 20.9685 48.3388 20.3099L48.2668 20.3458H48.2549Z" fill="#9D5D2C"/>
<path d="M25.5521 50.5334C25.5521 50.5334 25.5761 50.4256 25.588 50.3897C25.5521 50.4615 25.5162 50.5214 25.4802 50.5933L25.5521 50.5334Z" fill="#9D5D2C"/>
<path d="M50.1249 18.0946C50.2207 17.915 50.3286 17.7234 50.3526 17.5798C49.9091 17.9989 49.9451 18.0946 50.1249 18.0946Z" fill="#9D5D2C"/>
<path d="M180.696 157.501C180.576 157.681 180.48 157.848 180.312 158.076C180.504 157.836 180.612 157.657 180.696 157.501Z" fill="#9D5D2C"/>
<path d="M27.5179 48.857C26.8586 49.4078 26.1994 49.9587 25.5521 50.5334C25.4562 50.8687 25.3603 51.2159 25.2285 51.6709C25.4322 52.3415 26.9545 49.9347 27.5179 48.857Z" fill="#9D5D2C"/>
<path d="M50.1249 18.0946C49.8012 18.7053 49.1539 19.4597 48.3388 20.2979L49.5734 19.7111C51.9947 17.5557 50.5684 18.1186 50.1249 18.0946Z" fill="#9D5D2C"/>
<path d="M185.011 35.5174C184.46 34.0805 187.984 37.9243 186.306 35.3139L183.788 33.3261C184.424 33.5057 183.752 31.7934 183.812 31.2905C182.434 30.7756 185.143 35.29 182.086 33.0028C181.187 32.6197 179.569 30.3565 178.718 29.183C180.612 31.7455 178.107 29.5782 177.052 28.8238C176.057 27.1114 173.732 24.956 173.408 23.9502C173.048 23.8783 171.862 22.8844 171.106 22.142L171.202 21.8666C169.225 20.4896 171.658 22.585 170.999 22.4054C169.656 21.3517 167.87 19.2082 165.449 17.6995C167.846 19.1963 169.944 20.3698 171.694 21.4834C167.93 17.7714 173.312 20.9685 174.655 21.3636C172.952 19.9986 171.646 19.2202 170.411 18.5257C169.165 17.8551 167.978 17.2804 166.384 16.526C164.742 15.137 165.089 14.8136 165.928 14.8017C166.791 14.8376 168.242 15.3046 168.721 15.6039C167.846 15.101 166.899 14.6819 166 14.2748C165.125 13.9156 164.274 13.5803 163.459 13.2929C161.829 12.7061 160.39 12.2631 159.431 11.9398C162.392 12.311 162.128 11.7841 164.765 12.311C162.404 10.2514 161.469 10.6346 160.007 10.3232C160.81 10.6106 161.997 11.1854 162.164 11.5087C159.012 9.72451 158.808 11.4728 156.842 11.2932C154.697 9.72452 150.118 7.6529 150.765 6.91048L150.429 7.8685C147.469 6.99436 149.111 6.81471 148.775 6.33574C147.445 6.62312 148.464 7.9523 143.501 6.64708C144.748 5.27002 139.138 5.23408 139.653 3.85702C137.268 3.36607 136.009 3.91689 133.612 3.2583C132.342 2.57575 133.36 2.25243 134.895 2.19255C136.417 2.12071 138.491 2.3842 139.198 2.69553C142.638 3.54572 138.575 3.23437 139.953 3.58163C141.08 3.72532 142.207 3.88101 143.333 4.04865C141.619 3.17452 138.095 1.94111 138.694 1.39029C135.242 0.88736 141.236 2.73144 137.46 2.22851L135.326 1.36631C131.598 1.00708 135.866 2.61168 131.071 1.91716C132.725 1.84532 131.442 1.60587 129.788 1.28256C128.134 0.959248 126.108 0.600014 126.312 0.0851135C126.12 0.743708 123.963 0.492247 121.673 0.312631C119.396 0.109065 116.999 -0.0106995 116.471 0.516176L119.024 0.959224L118.485 0.324544C121.29 0.456263 123.651 0.324556 126.492 0.935252C124.179 1.13882 127.103 2.15664 124.454 2.27638C119.492 2.57574 123.22 1.41426 122.536 1.34241C121.206 1.45018 119.887 1.59385 118.569 1.76149L121.158 2.52787C118.125 2.50392 114.002 2.37222 109.831 2.39617C103.609 1.85732 110.574 1.5819 106.079 1.04305C104.101 1.48611 104.628 1.76152 101.763 1.94114C103.346 2.16865 104.484 1.51006 105.551 1.49809C106.258 1.88127 105.012 2.06084 103.621 2.27638C102.231 2.49192 100.685 2.76732 100.876 3.16248C99.6658 2.99484 99.8336 2.62367 100.721 2.15667C95.9499 3.09067 91.4549 4.09655 89.3932 3.6056C88.8058 4.13248 88.2425 4.67129 87.6791 5.21013C83.6875 6.33573 84.9462 5.6891 86.3726 4.89879C87.799 4.1444 89.4172 3.3062 85.9291 4.08454C83.1122 4.91077 80.4511 6.08425 79.4562 6.98233C80.2354 6.65902 81.0145 6.33572 81.7937 6.02439C81.0025 6.64706 80.6909 7.05423 80.2474 7.48531C80.0196 7.70085 79.7679 7.92833 79.3963 8.20374C79.1566 8.37139 79.1566 8.41932 79.0127 8.53906C78.9528 8.58696 78.8928 8.63485 78.8329 8.68275C78.6891 8.7546 78.5333 8.83843 78.3655 8.92225C76.3158 9.5569 77.1428 8.49111 74.9253 9.97594C71.7848 10.9339 71.1615 10.8381 71.3892 10.2274C71.617 9.62871 72.7317 8.61086 73.0554 7.96424C68.2727 9.3892 74.6016 5.13829 71.6769 6.86261L72.6118 6.73091C71.1854 7.80861 69.807 8.94618 68.4765 10.0957C73.2951 9.13777 69.759 8.32351 71.9646 8.59892C72.8516 8.25166 73.7386 7.91636 74.6376 7.60502C74.3259 8.04808 72.6118 8.76656 70.9696 9.56885C69.3275 10.3592 67.7572 11.2213 67.6374 11.6524C67.4336 11.377 67.6853 10.3112 70.3823 9.02998L68.2127 8.61091C66.5705 9.25753 65.9472 10.5508 64.8325 10.4909C62.1235 11.0178 67.5894 7.4733 61.7519 10.2993C58.6593 11.9158 57.4846 13.1253 56.5497 14.1311C56.0942 14.646 55.6866 15.125 55.1592 15.6399C54.6198 16.1787 54.0565 16.6338 52.8818 17.448C53.1814 17.4002 53.6249 17.1487 54.1164 16.8373C54.5718 16.5619 55.0993 16.1787 55.6986 15.7836C54.7157 17.005 57.0771 15.7836 55.2192 17.5079C54.512 17.484 52.5701 18.6095 51.3954 19.5914C50.0289 20.6572 48.5426 21.9863 47.236 23.1239C47.6076 22.166 45.6298 23.2796 46.2771 22.3575C45.0185 23.6029 43.8917 24.7764 43.5921 25.5667C49.3217 21.4235 38.9412 30.5959 43.64 27.6502C41.5663 29.4344 40.1998 30.3445 38.9892 31.051C38.6895 31.2306 38.3898 31.3863 38.1021 31.5539C37.8145 31.7215 37.5268 31.8533 37.1912 32.1048C36.8675 32.3323 36.5319 32.5717 36.1723 32.8352C35.8127 33.0986 35.4531 33.386 35.1175 33.6614C35.0456 33.5297 36.2802 32.0808 36.9874 31.1827C37.2871 30.8115 37.4788 30.56 37.335 30.572C37.1911 30.5959 36.7716 30.7995 35.6329 31.8293C35.3812 32.1765 35.1654 32.4759 34.9736 32.7274C34.8178 32.9669 34.698 33.1704 34.6021 33.3381C34.4103 33.6853 34.3144 33.9129 34.2904 34.0686C34.2424 34.3679 34.4822 34.3559 34.7579 34.32C35.3093 34.2481 35.9565 34.0685 34.8058 36.0922C35.7408 35.254 36.5798 34.5116 37.6586 33.5896C37.9463 33.6973 37.7905 34.0805 37.395 34.5835C36.9994 35.0984 36.4719 35.6731 35.8366 36.3078C34.614 37.5531 33.2356 38.9062 33.0198 39.3373C31.3297 40.858 34.8537 36.7748 32.84 37.9243C30.4187 40.3192 29.9033 42.1034 28.2491 43.5523C28.9563 41.4328 28.333 42.6542 29.3399 40.3552C26.8347 43.4925 26.7628 43.3128 26.7268 42.8578C26.7148 42.4147 26.7868 41.7322 24.737 44.0792C23.7062 45.7676 24.9528 45.1209 23.0109 47.6236C24.749 46.5698 24.761 46.8692 27.8295 42.8458C27.6857 44.9293 23.6222 48.0188 22.3516 51.4315C23.9459 49.1085 23.0109 50.8088 24.5572 48.1744C25.612 48.39 26.3432 47.5637 25.576 50.3418C27.1583 47.5518 27.0864 45.7436 30.191 42.2591C30.9821 42.0794 30.2389 43.3009 29.4597 44.6899C28.6926 46.0909 27.8895 47.6476 28.405 48.0547C28.0094 49.1564 26.9306 50.7729 25.7679 52.3655C24.6052 53.9581 23.3585 55.5507 22.5195 56.5206C22.1359 57.5744 21.7044 58.676 21.2729 59.7777L20.9612 60.5799C20.9372 60.7116 20.8653 60.9032 20.8054 61.023C20.5417 61.5379 20.2899 62.0528 20.0262 62.5557C18.9834 64.6632 18.1563 66.7348 17.8686 68.4831C16.9456 69.7883 15.8429 72.3508 14.8 75.2846C13.7452 78.2183 12.7743 81.5232 11.7674 84.3253C10.8924 85.0078 9.5379 91.3063 9.81359 87.5823C9.82558 87.726 9.7656 88.1211 9.69368 88.636C9.60977 89.1869 9.51391 89.8455 9.43001 90.4442C9.38206 90.7914 9.394 91.1746 9.38201 91.4261C9.38201 91.6536 9.40603 91.8571 9.43001 92.0008C9.47795 92.2882 9.57386 92.3601 9.74167 92.0727C9.68174 91.7973 9.69374 91.6057 9.75367 91.1986C9.78963 90.8034 9.95738 90.2407 10.0653 89.7377C10.2451 90.073 10.365 90.528 10.5448 90.9232L10.4249 91.5339L10.341 92.0608C10.2931 92.408 10.2571 92.7672 10.2331 93.1264C10.1851 93.8449 10.1612 94.5754 10.1492 95.3058C10.1132 96.7667 10.0533 98.2036 9.66975 99.4968C8.98651 100.287 9.90943 94.5035 9.01043 96.1919C9.394 97.5211 9.38202 100.79 9.16626 104.119C9.05838 105.783 8.90255 107.472 8.71076 108.945C8.66281 109.316 8.61487 109.663 8.56693 109.998C8.51898 110.322 8.44708 110.765 8.43509 111.088C8.38714 111.747 8.31526 112.262 8.24334 112.693C8.07552 114.992 7.2005 115.291 7.12858 116.273C7.2005 117.59 7.32034 118.895 7.47617 120.201C7.23644 120.692 6.90078 120.787 6.62509 121.578C6.66105 123.577 7.21244 124.859 7.60801 126.02C7.85973 128.631 7.75186 129.313 7.32034 129.026C6.9008 128.738 6.24154 127.457 5.67817 126.152C5.58227 125.134 5.51036 124.116 5.46241 123.11C4.71924 120.979 4.65927 117.77 4 119.71C4.21576 121.254 4.58735 121.159 4.82708 121.686C4.73119 122.296 4.65927 122.907 4.59933 123.53C4.91099 124.404 5.33053 126.056 5.81 127.397C6.2655 128.738 6.76894 129.756 7.00867 129.421C7.45218 133.073 9.418 136.809 10.305 139.911C9.76561 137.743 11.1561 140.174 11.3478 139.372C10.8804 138.198 10.4369 137.001 10.0413 135.803C10.365 136.498 10.7246 137.252 11.1441 138.031C11.3479 138.426 11.5516 138.821 11.7794 139.216L12.103 139.815L12.3068 140.162C12.4866 140.497 12.7982 141.563 13.0739 142.329C13.3376 143.144 13.5654 143.922 13.7213 144.617C13.2298 144.437 13.05 144.365 13.2298 145.874C13.0859 144.82 13.7692 145.994 14.3565 146.868C14.9678 147.73 15.4353 148.305 14.8839 146.149C14.0329 144.748 13.4216 143.359 12.8223 141.348C13.2418 139.779 14.2966 142.88 15.4593 144.365C16.4422 146.413 18.5998 150.28 20.4697 152.663C21.2968 154.364 20.7814 155.429 23.2027 157.729C22.2917 155.801 23.1548 156.423 24.4134 157.489C25.672 158.567 27.398 160.016 28.0693 160.111C28.9563 161.345 29.9272 162.171 30.8861 162.794C31.869 163.416 32.7801 164.027 33.4993 165.069C32.9239 164.793 31.7372 163.919 30.5146 163.069C29.3039 162.147 28.2371 161.153 27.5779 160.926C27.0265 161.177 27.0504 162.878 23.7061 159.369C25.4202 161.728 26.1395 162.243 26.583 162.446C27.0504 162.65 27.2782 162.53 28.297 163.381C27.8176 162.937 27.3501 162.482 26.8826 162.015C27.6618 162.506 26.8826 160.962 28.0573 162.219C28.333 162.53 28.5967 162.818 28.8485 163.105C29.1122 163.392 29.3639 163.716 29.6635 163.955C30.2029 164.446 30.5985 164.829 31.0061 165.225C31.7852 165.991 32.3965 166.662 32.9479 167.284C34.0387 168.553 34.8897 169.703 36.3521 171.391C35.8726 170.421 37.6946 171.379 38.5217 172.002C41.4465 175.103 37.6586 172.972 39.0851 175.331C39.8402 175.57 40.7392 176.181 41.3985 176.612C41.6862 176.792 42.0937 177.067 42.2855 177.151C42.4773 177.235 42.5253 177.175 42.3335 176.888C42.753 177.259 43.0527 177.426 43.2325 177.558C43.4123 177.69 43.4961 177.786 43.5561 177.87C43.6879 178.037 43.676 178.157 44.1794 178.552C45.414 178.672 46.6846 179.055 48.8183 180.169C48.5066 180.3 48.0032 180.516 46.0373 179.283C48.2069 180.719 48.6624 181.965 47.4038 181.905C46.1812 181.139 44.9825 180.348 43.8078 179.534C41.7941 179.115 47.1641 181.737 46.7566 182.168C45.0065 181.39 43.9397 180.348 42.8129 179.881C43.5201 181.079 47.1281 182.348 49.1179 183.234C52.1865 184.839 50.7841 184.863 50.6762 185.21C53.6009 185.964 52.1386 184.994 50.6762 183.988C49.2138 182.971 47.7514 181.929 50.4005 182.683C52.5581 182.923 57.2449 185.066 60.745 186.072C58.108 184.216 61.4762 185.09 65.0602 185.88C62.7707 185.174 62.567 184.803 62.2314 184.527C61.8957 184.228 61.4523 183.989 58.7313 183.27L58.8751 182.587C61.0807 183.45 63.6458 184.623 65.9233 185.306C65.3959 185.342 65.8753 185.653 65.0962 185.533C66.2469 185.821 67.3977 186.096 68.5604 186.335C69.7111 186.575 70.8378 186.779 71.9526 187.066L71.1615 187.317C75.225 188.575 80.3912 190.335 82.9923 190.551C80.9066 190.203 79.2884 189.15 81.47 189.413C82.7765 189.389 85.09 189.497 87.0318 189.88C87.9069 190.91 95.4225 191.748 90.5799 191.987C93.6725 192.155 94.6554 192.071 95.6023 191.999C96.5493 191.928 97.4602 191.844 100.409 191.688C99.0904 191.748 97.7839 191.724 96.4653 191.724C96.0338 191.065 99.2942 190.215 95.6383 189.557C97.8079 189.533 98.2274 189.114 98.8028 188.814C99.3901 188.491 100.145 188.215 102.986 188.144C105.3 188.479 102.327 189.497 99.0545 189.533C100.685 189.64 102.183 190.012 103.861 189.533C105.12 190.048 100.781 190.491 100.924 190.67C103.933 190.742 100.876 190.347 103.705 190.143C106.163 189.724 106.954 189.928 107.745 190.179C108.524 190.395 109.303 190.742 111.652 190.215C110.622 190.383 108.752 190.347 109.974 189.94C113.151 189.605 113.99 189.281 114.625 188.994C115.261 188.706 115.656 188.395 117.898 187.868C120.607 188.299 119.672 189.521 123.843 188.91L121.541 189.353C123.244 189.509 125.114 189.317 126.78 188.934C135.194 186.156 141.667 182.647 149.578 178.552C148.631 179.019 147.684 179.522 146.726 179.977C145.611 180.097 149.039 178.624 148.847 178.313C149.518 178.193 150.178 178.049 150.837 177.906C151.077 177.103 146.486 179.055 147.325 178.001C147.601 177.977 148.2 177.75 148.524 177.546L146.774 178.061C148.715 177.379 150.31 176.433 151.808 175.594C152.575 175.163 153.318 174.768 154.085 174.457C154.865 174.169 155.68 173.966 156.459 173.894C149.063 177.307 156.147 176.253 148.967 179.726C152.755 177.822 149.95 180.097 150.453 180.193C152.563 179.414 151.269 179.295 153.63 178.456C153.81 178.935 148.979 181.51 151.34 180.875C151.293 180.073 153.426 179.318 154.169 178.384C155.919 177.786 154.325 178.84 155.152 178.708C156.063 178.229 156.483 177.726 157.37 177.45L156.914 178.145C159.431 177.403 159.743 177.019 160.079 176.612C160.414 176.169 160.822 175.702 163.483 174.361C163.327 173.738 161.829 174.78 159.659 175.966C158.796 175.63 160.366 174.493 161.913 173.223C163.471 171.954 164.993 170.541 164.406 170.05C168.841 166.961 163.507 171.332 167.594 169.116C168.913 168.781 168.35 169.452 167.355 170.386C166.348 171.296 164.897 172.409 164.526 172.984C166.036 172.313 167.546 171.607 169.021 170.829C168.314 172.768 165.437 174.074 165.185 175.439C168.469 173.547 167.954 173.535 170.855 171.032C165.305 173.774 172.617 168.925 169.093 169.966C171.526 168.589 170.999 169.332 174.187 166.805C172.317 168.613 174.738 167.643 171.993 169.751C174.199 168.039 174.906 167.296 175.625 166.59C175.997 166.218 176.369 165.847 176.896 165.32C177.495 164.686 178.047 163.979 178.946 162.961C179.461 161.153 174.463 166.302 178.394 161.057C179.329 160.004 179.377 160.423 178.826 161.034C182.194 157.788 177.412 161.046 179.066 158.591C180.36 157.01 181.091 156.687 180.672 157.441C182.374 154.867 180.828 155.753 182.05 154.112L181.355 154.735C181.751 153.933 179.281 154.903 182.182 151.61C182.71 151.023 183.117 150.616 183.357 150.424C183.549 150.28 183.68 150.233 183.788 150.233C183.98 150.233 184.028 150.484 184.148 150.544C184.268 150.328 184.34 150.161 184.472 149.933C184.615 149.694 184.759 149.454 184.891 149.227C185.167 148.772 185.455 148.365 185.742 147.969C186.306 147.191 186.869 146.521 187.396 145.874C187.169 145.934 187.121 145.694 187.48 145.072C189.158 141.383 189.182 143.335 189.986 142.03C191.412 139.468 190.944 139.468 190.513 139.384C190.045 139.288 189.65 139.12 190.777 136.163C189.83 138.438 188.751 140.641 187.54 142.772C187.324 142.317 186.857 141.91 186.138 143.287C186.617 143.695 185.838 146.257 184.4 148.269C183.908 148.365 184.651 146.892 185.083 145.742C185.514 144.593 185.718 143.826 184.364 145.383C185.215 144.209 186.006 142.353 186.845 140.785C186.785 141.755 187.468 140.485 188.032 139.348C188.607 138.21 189.075 137.18 188.859 138.797C189.602 136.953 190.141 135.492 190.597 134.235C190.813 133.6 191.016 133.025 191.208 132.463L191.364 132.007C191.436 131.792 191.496 131.588 191.58 131.397C191.7 131.097 191.82 130.81 191.939 130.511C192.754 128.439 193.486 126.403 194.205 122.763C194.337 123.146 194.385 124.559 194.145 126.332C194.025 127.218 193.833 128.2 193.57 129.17C193.438 129.66 193.282 130.139 193.102 130.618C193.018 130.858 192.922 131.085 192.814 131.325L192.635 131.732C192.563 131.888 192.503 132.043 192.443 132.199C192.263 132.307 192.083 132.427 191.915 132.463C191.424 134.821 191.831 133.983 192.407 132.654C192.527 132.331 192.814 131.636 192.982 131.349C193.162 131.014 193.33 130.678 193.486 130.415C193.809 129.876 194.049 129.565 194.145 129.828C194.636 126.775 195.751 123.625 196.782 120.225C197.825 116.836 198.724 113.196 198.916 109.436C198.376 110.705 198.328 109.196 197.957 108.849C197.741 111.819 197.945 111.328 197.154 113.423C196.686 112.932 197.142 111.208 196.854 110.238C196.362 109.4 196.578 112.441 196.099 113.435C196.195 110.621 196.051 110.873 195.763 109.184C196.362 107.723 196.626 107.951 197.237 106.813C197.549 103.389 197.237 101.88 197.034 100.551C196.758 99.2334 196.554 98.0839 196.35 95.4495C196.554 98.3832 196.83 94.0006 196.938 97.2218C196.926 96.623 196.89 96.0243 196.83 95.4376C197.537 97.6648 197.861 100.874 198.053 103.424C198.256 105.975 198.412 107.891 199.155 107.532C199.311 103.52 198.616 100.634 198.184 95.9405L198.472 96.1081C198.124 92.7074 198.136 96.2039 197.801 95.4256C197.585 94.5036 197.501 93.7371 197.465 93.0546C197.453 92.3721 197.501 91.7854 197.513 91.2345C197.573 90.1329 197.537 89.1629 196.698 88.0493L197.094 89.9173L197.393 91.8093C196.219 89.115 197.477 92.6594 196.41 92.1565C195.607 89.7497 194.66 86.5405 193.054 83.4272L192.766 82.8404C192.671 82.6848 192.599 82.5291 192.491 82.3614C192.299 82.0381 192.059 81.6789 191.819 81.3316C191.328 80.6252 190.753 79.9067 190.165 79.2361C189.566 78.5536 188.931 77.9069 188.307 77.3441C188.008 77.0807 187.624 76.7574 187.468 76.6616C187.372 76.5897 187.253 76.5299 187.145 76.47L186.977 76.3862C186.857 76.3144 186.677 76.1946 186.473 76.0629C186.677 76.2545 186.869 76.4222 186.929 76.494C186.965 76.5539 187.001 76.6017 187.025 76.6616C187.085 76.7694 187.145 76.8652 187.193 76.961C187.253 77.0687 187.265 77.1167 187.36 77.2364L187.648 77.6076C188.08 78.1225 188.559 78.6973 189.35 79.6313C187.66 79.5714 187.193 78.817 187.133 80.3737C187.732 81.0802 188.319 81.8465 188.835 82.589L187.912 83.2955C187.492 82.7327 187.085 82.11 186.737 81.5352C186.342 81.631 185.706 80.8048 185.119 80.1342C184.723 79.7151 184.819 79.7511 184.735 79.7151C184.675 79.6912 184.783 79.787 184.376 79.5595C184.076 79.4038 183.764 79.2361 183.621 79.2361C183.968 79.5115 184.208 79.6672 184.412 79.8109C184.52 79.8827 184.568 79.9067 184.556 79.9067H184.58C184.58 79.9067 184.627 79.9307 184.651 79.9426C184.615 79.8947 184.927 80.1582 185.179 80.3857C185.323 80.9724 184.963 80.7688 184.472 80.4216C184.316 80.3018 184.34 80.3617 184.316 80.3497C184.292 80.3497 184.28 80.3497 184.256 80.3617C184.268 80.3737 184.232 80.3617 184.076 80.2539L183.621 79.9426C183.261 79.6792 182.793 79.3319 182.218 78.7691C181.103 77.7633 179.605 75.6797 179.018 73.6201C179.269 74.602 179.689 75.6797 180.264 76.6377C180.828 77.6076 181.523 78.4458 182.11 79.0326C182.71 79.6433 183.261 80.0863 183.597 80.3617C183.728 80.4695 183.872 80.5773 184.016 80.6851C184.028 80.697 184.016 80.709 184.016 80.709C184.22 80.8886 184.436 81.0682 184.651 81.2598C185.622 82.098 186.929 83.3793 187.684 84.4929C187.816 84.3013 188.415 84.6366 188.775 84.7085C188.955 84.7444 189.099 84.7324 189.146 84.6126C189.194 84.4929 189.146 84.2294 188.763 83.6307C188.967 83.511 189.386 83.7984 189.722 84.1456C189.806 84.2414 189.866 84.2774 189.962 84.4331C190.057 84.5887 190.153 84.7443 190.249 84.9C190.441 85.2113 190.609 85.5347 190.753 85.8221C190.501 85.5706 190.477 86.2651 190.285 86.7082C190.081 87.1512 189.83 87.271 189.063 86.0496C190.657 88.3846 189.626 87.1153 190.849 90.0491C190.621 89.8814 191.052 91.2106 191.244 92.6595C191.46 94.0964 191.484 95.6172 190.944 95.4854C191.22 95.9884 191.592 95.9285 191.951 96.2398C192.323 96.5512 192.683 97.2337 192.802 99.3173C193.15 98.7904 193.234 97.3774 193.366 96.4554C193.462 95.5573 193.63 95.1382 194.193 96.6589L193.498 94.6951C193.33 91.8212 194.397 95.3537 193.965 91.6057C194.193 92.6715 194.9 94.8867 194.457 95.4615C195.128 94.8747 195.523 96.2758 195.751 97.9043C196.003 99.5209 196.099 101.341 196.638 101.437C196.195 102.347 196.159 103.52 196.135 105.795C195.751 105.46 195.284 106.682 195.116 104.921C195.296 103.496 195.164 102.467 195.487 100.898C194.744 101.341 194.648 102.742 194.6 104.526C194.54 106.31 194.552 108.478 194.145 110.334C194.325 109.831 194.481 109.687 194.564 110.753C194.313 111.89 193.917 113.723 193.51 115.04C193.102 116.321 192.671 117.147 192.479 116.381C191.807 120.117 190.861 123.817 189.65 127.421C189.302 127.361 190.045 125.841 190.141 125.134C189.818 126.14 189.47 127.146 189.099 128.14L188.535 129.625L188.319 130.175C188.223 130.415 188.152 130.642 188.068 130.906L187.804 131.744C187.36 132.355 187.42 131.828 187.528 131.05C187.528 131.014 187.612 130.69 187.648 130.511C187.696 130.307 187.756 130.092 187.816 129.888L187.912 129.577L187.948 129.421C187.972 129.313 187.996 129.205 188.008 129.11C188.092 128.703 188.128 128.355 188.08 128.164L187.684 129.229L187.36 130.068L187.073 131.002C186.869 131.696 186.641 132.391 186.402 133.085L186.174 132.367C186.15 132.918 185.754 134.402 185.143 135.815C184.544 137.24 183.74 138.581 183.141 138.965C182.194 141.132 181.99 142.353 181.559 143.718C181.343 144.401 181.055 145.119 180.552 145.97C180.42 146.185 180.288 146.413 180.132 146.64C180.061 146.748 179.989 146.844 179.917 146.952L179.845 147.035C179.845 147.035 179.785 147.083 179.749 147.119L179.701 147.155L179.497 147.359C179.198 147.646 178.874 147.945 178.538 148.269C178.442 148.089 178.562 147.802 178.802 147.431C178.922 147.251 179.078 147.047 179.245 146.832C179.317 146.712 179.305 146.724 179.341 146.664C179.257 146.748 179.725 146.077 179.953 145.634C180.216 145.167 180.432 144.712 180.528 144.329C180.3 144.557 180.049 144.964 179.737 145.419C179.473 145.838 178.982 146.58 179.066 146.473C178.982 146.556 178.898 146.652 178.826 146.724C178.598 146.964 178.382 147.179 178.179 147.359C177.771 147.73 177.411 147.969 177.16 147.993C173.875 152.268 175.266 152.723 174.055 155.142C171.154 158.435 173.264 155.082 172.988 155.058C172.533 155.525 172.209 156.375 171.802 157.142C171.442 157.86 170.747 158.758 170.447 158.351C170.423 158.459 170.459 158.519 170.375 158.686C170.267 158.878 170.172 159.058 170.1 159.213C169.944 159.537 169.86 159.776 169.884 159.932C169.908 160.076 170.04 160.123 170.315 160.028C170.459 159.98 170.627 159.896 170.831 159.764C170.939 159.692 171.047 159.621 171.178 159.537C171.286 159.465 171.334 159.453 171.406 159.405C171.071 159.716 170.699 160.064 170.315 160.423C169.896 160.842 169.464 161.261 169.081 161.644C168.314 162.435 167.702 163.105 167.582 163.404C168.314 161.5 165.353 164.506 164.634 163.871C163.267 164.71 161.05 165.979 158.868 167.236C157.765 167.859 156.686 168.506 155.716 169.104C154.757 169.715 153.941 170.302 153.222 170.924L153.666 169.428C152.347 170.014 151.113 170.661 149.866 171.296C149.099 171.439 148.931 171.367 149.075 171.176C149.219 170.996 149.734 170.685 150.441 170.29C151.137 169.907 151.976 169.463 152.815 169.092C153.019 168.996 153.222 168.901 153.414 168.817C153.582 168.733 153.738 168.661 153.894 168.589C154.193 168.446 154.457 168.314 154.661 168.218C154.061 168.47 153.498 168.709 152.947 168.937C152.323 169.188 151.724 169.44 151.161 169.703C150.597 169.966 150.046 170.218 149.506 170.469C149.003 170.697 148.512 170.912 148.02 171.128C146.09 172.002 144.184 172.792 141.979 173.655C143.357 173.391 142.674 173.918 143.429 174.026C142.087 175.091 139.821 175.523 138.263 176.205C137.783 176.061 137.891 175.738 139.114 175.223C138.095 175.63 137.088 176.038 136.057 176.409C136.069 175.618 134.571 176.121 137.472 174.648L134.691 175.798C131.455 176.564 134.667 175.187 135.35 174.684C133.684 175.175 132.006 175.63 130.316 176.049C128.614 176.936 131.526 176.421 128.086 177.546C123.244 178.133 117.238 179.57 111.724 180.121C113.043 180.169 114.362 180.217 115.68 180.229C112.36 180.564 113.187 181.618 112.228 182.276C109.243 182.599 105.3 182.911 102.758 182.599C105.611 181.977 104.365 181.139 101.787 180.636C98.8507 180.552 97.7119 180.743 96.8969 181.067C96.0698 181.354 95.5784 181.785 93.8643 181.809C95.2547 181.21 94.2118 180.971 92.9173 180.803C91.6227 180.6 90.0645 180.432 90.4121 180.073C86.6003 179.546 82.7406 178.899 78.821 178.061C77.8381 177.834 76.8551 177.618 75.8722 177.391C74.8054 177.127 73.7266 176.828 72.6478 176.6C71.5091 176.349 70.6101 176.133 69.6631 175.882C68.7162 175.63 67.7692 175.355 66.8343 175.056C66.9182 175.307 69.0158 176.181 67.6254 175.99C64.7606 175.343 63.6578 174.277 63.3941 173.87C59.8461 172.697 57.6884 172.194 56.3699 172.05C57.9161 172.625 57.9761 172.852 57.5326 173.104C54.0205 171.619 55.4229 171.188 51.9108 170.134C51.4434 169.008 55.6387 171.643 55.6747 170.757C54.2003 170.014 52.9776 169.428 51.8269 168.949C51.2635 168.697 50.7001 168.482 50.1488 168.254L49.7293 168.086L49.5255 168.003C49.5255 168.003 49.4655 168.003 49.4296 167.991C49.3217 167.991 49.2138 167.991 49.1179 167.955C49.2738 167.476 49.7413 168.206 49.5255 167.584C49.4776 167.572 49.4416 167.548 49.4056 167.536C49.3576 167.512 49.3576 167.536 49.1658 167.392C48.8662 167.188 48.5785 166.973 48.2788 166.757C47.6795 166.338 47.0682 165.895 46.4569 165.464C45.2343 164.602 43.9877 163.728 42.789 162.878C40.3916 161.177 38.1261 159.585 36.4001 158.363L35.9326 157.13C35.4291 156.735 35.6808 156.974 35.1774 156.507C34.8058 156.172 34.4702 155.861 34.1706 155.585C33.5472 155.034 33.0318 154.603 32.5643 154.292C31.929 153.154 32.7082 153.813 33.5712 154.675C31.4975 152.304 28.8844 149.442 27.9135 147.921C28.4049 147.957 28.9203 149.406 29.4837 149.658C28.4529 147.993 27.0864 146.221 25.9836 144.461C24.8808 142.701 24.0537 140.952 24.0058 139.575C24.2215 139.851 24.3894 140.198 24.5093 140.533C24.2456 139.851 23.9939 139.18 23.7541 138.498L23.4065 137.492L23.1548 136.713C23.0469 136.39 22.9629 136.067 22.7951 135.767L22.1239 134.426C21.9561 134.115 21.8123 133.792 21.6564 133.48C21.3448 132.846 21.057 132.211 20.7694 131.564C19.6546 128.978 18.6837 126.248 18.0724 123.098C17.9525 120.141 17.7248 119.71 17.3053 119.279C16.9457 118.848 16.3943 118.44 16.3344 115.459C16.7898 115.435 16.9816 114.92 17.0895 114.142C17.1375 113.746 17.1614 113.279 17.1614 112.765C17.1614 112.513 17.1614 112.238 17.1614 111.962C17.1614 111.651 17.1494 111.459 17.1374 111.364C17.1974 110.142 17.2573 108.825 17.3053 107.663C17.3772 106.43 17.461 105.352 17.6289 104.67L17.2693 105.52C16.9576 102.203 18.1443 97.8085 18.9114 95.6052C18.9954 94.9945 19.0913 94.3478 19.1872 93.6653C19.2351 93.33 19.2831 92.9828 19.319 92.6235C19.355 92.396 19.355 92.3482 19.4029 92.1446C19.6786 90.9232 20.0142 89.4742 20.3619 88.1211C21.0451 85.367 21.8003 82.6249 22.3157 80.3737L22.3397 81.3556C23.2627 77.6675 24.797 75.7755 26.1515 72.2311C26.2114 72.3868 25.7558 73.7279 26.547 72.5065C27.1223 71.5366 27.7097 70.5667 28.309 69.6087L29.232 68.1837L30.3707 66.4833L32.2287 63.0826C32.8041 62.0768 33.3794 61.0829 33.9787 60.089C36.3641 56.1374 39.0132 52.3176 41.9379 48.7013C43.3883 46.9051 44.9465 45.109 46.4928 43.4565C46.8644 43.0733 47.1761 42.7021 47.5956 42.3069L48.9381 41.0856L51.6351 38.6547C53.4451 37.0382 55.2431 35.4336 57.0531 33.8291L59.7741 31.4462L61.1406 30.2606C61.3684 30.069 61.6081 29.8535 61.8119 29.6859L62.4112 29.2548L63.6818 28.3567L65.0482 27.4347C65.9712 26.824 66.9062 26.2373 67.8651 25.6625C69.783 24.513 71.7728 23.4472 73.8225 22.4653C75.8842 21.4834 77.9939 20.5734 80.1755 19.7711C80.7269 19.5795 81.2663 19.3639 81.8176 19.1843L82.8725 18.8251C83.316 18.6694 83.8794 18.394 84.0592 18.3222C85.114 17.8552 86.1927 17.4121 87.2955 17.005C91.6587 15.3525 96.2496 14.179 100.972 13.4964C103.274 13.1492 105.719 12.9696 108.164 12.8498C110.61 12.7301 113.067 12.7181 115.524 12.802C120.427 12.9576 125.329 13.5204 130.184 14.3945C135.051 15.2567 139.701 16.4302 144.196 17.9749C148.691 19.5077 152.971 21.3756 157.022 23.531C158.029 24.0579 159.06 24.6327 159.983 25.1715C160.906 25.7104 161.805 26.2732 162.68 26.8719C164.418 28.0574 166.06 29.3626 167.606 30.7636C167.606 30.7636 168.637 31.1108 170.195 31.6976C171.754 32.2963 173.851 33.1705 175.973 34.0446C180.216 35.8048 184.52 37.4334 184.963 35.4576L185.011 35.5174Z" fill="#9D5D2C"/>
<path d="M178.862 161.093C178.742 161.213 178.622 161.321 178.478 161.465C178.634 161.333 178.754 161.213 178.862 161.093Z" fill="#9D5D2C"/>
<path d="M97.8438 189.545C98.2514 189.569 98.6709 189.581 99.0784 189.581C98.6709 189.545 98.2634 189.521 97.8438 189.545Z" fill="#9D5D2C"/>
<path d="M28.321 163.452C28.7046 163.824 29.208 164.303 29.6875 164.626C29.0761 164.171 28.6207 163.704 28.321 163.452Z" fill="#9D5D2C"/>
<path d="M23.9099 53.7306C23.1428 54.018 24.1137 50.713 22.2318 52.9043C19.6307 57.1912 19.6307 58.4126 19.5468 59.5861V59.8136C19.5468 59.8136 19.5707 59.8734 19.5827 59.9094C19.6067 59.9812 19.6307 60.077 19.6427 60.1608C19.6427 60.1968 19.6426 60.2566 19.6546 60.2925V60.3524L19.6187 60.4961C19.5468 60.6997 19.4509 60.9272 19.343 61.1667C18.9115 62.1486 18.1563 63.5256 16.8498 65.7289C17.8806 64.3159 18.9354 62.9389 20.0382 61.5978C19.8105 61.5379 19.7386 61.2744 19.7865 60.8793C19.7985 60.7835 19.8225 60.6638 19.8464 60.556C19.8824 60.4363 19.8225 60.4482 19.8464 60.3524C19.8464 60.2806 19.8464 60.2087 19.8464 60.1369C19.8704 60.0291 19.8104 60.077 19.8824 59.8495C20.2899 58.5203 21.081 56.784 22.064 55.0477L23.2506 54.3413C23.0588 55.0238 22.8311 55.7183 22.5794 56.4368C23.3945 55.1915 22.8072 55.1675 23.898 53.7306H23.9099Z" fill="#9D5D2C"/>
<path d="M22.3876 56.7601C22.3876 56.7601 22.4955 56.6284 22.5434 56.5685C22.5434 56.5326 22.5674 56.4847 22.5914 56.4487C22.5194 56.5565 22.4595 56.6403 22.3876 56.7601Z" fill="#9D5D2C"/>
<path d="M199.851 78.7572C199.851 78.853 199.815 78.9008 199.743 78.9368C199.791 78.9966 199.839 79.0565 199.899 79.1164L199.851 78.7452V78.7572Z" fill="#9D5D2C"/>
<path d="M184.962 62.0287C184.962 62.0287 184.95 62.0049 184.939 61.993C184.903 62.0644 184.867 62.1359 184.795 62.1835C184.891 62.1676 184.946 62.116 184.962 62.0287Z" fill="#9D5D2C"/>
<path d="M188.823 66.3636C188.811 66.4714 188.787 66.5792 188.751 66.6869C188.823 66.651 188.835 66.5193 188.823 66.3636Z" fill="#9D5D2C"/>
<path d="M199 75.8953C199.012 76.1587 199 76.4221 199 76.6975C199.155 76.5419 199.215 76.2066 199 75.8953Z" fill="#9D5D2C"/>
<path d="M188.775 65.6332C188.775 65.8367 188.811 66.1361 188.823 66.3636C188.859 66.1121 188.835 65.8727 188.775 65.6332Z" fill="#9D5D2C"/>
<path d="M187.612 50.6771C187.564 50.8088 187.48 51.1202 187.36 51.4075C187.241 51.6231 187.037 52.138 186.797 52.5212C186.761 52.581 186.737 52.617 186.701 52.6888C186.821 52.4852 186.941 52.2817 187.037 52.0781C187.145 51.8745 187.241 51.6231 187.313 51.5034C187.456 51.2279 187.564 50.8328 187.612 50.6771Z" fill="#9D5D2C"/>
<path d="M173.732 72.4826C173.588 72.9735 173.684 73.1172 173.899 73.1412C173.815 72.9975 173.756 72.7939 173.732 72.4826Z" fill="#9D5D2C"/>
<path d="M168.374 83.5828C168.374 83.4871 168.374 83.3793 168.35 83.2835C168.326 83.4751 168.338 83.6307 168.374 83.5828Z" fill="#9D5D2C"/>
<path d="M174.307 78.5776C174.403 78.6015 174.487 78.6135 174.559 78.6015C174.511 78.5297 174.439 78.5177 174.307 78.5776Z" fill="#9D5D2C"/>
<path d="M173.672 83.4631L173.372 83.6547C173.492 83.6547 173.588 83.5709 173.672 83.4631Z" fill="#9D5D2C"/>
<path d="M177.699 68.7339C177.699 68.7339 177.723 68.6505 177.735 68.6028C177.723 68.6505 177.711 68.6863 177.699 68.7339Z" fill="#9D5D2C"/>
<path d="M177.831 68.3154C177.795 68.4232 177.771 68.507 177.735 68.6148C177.783 68.4951 177.843 68.3873 177.831 68.3154Z" fill="#9D5D2C"/>
<path d="M187.696 50.2581C187.696 50.2581 187.78 50.4137 187.864 50.4975L188.092 50.749C188.188 50.8567 188.283 50.9406 188.427 51.0483C188.643 51.2519 188.871 51.4555 189.111 51.6471L190.321 52.5691C190.98 53.072 191.64 53.5629 192.311 54.018L192.814 54.3653L193.066 54.5329L193.606 54.9161L193.725 54.9999V55.0358C193.797 55.1676 193.594 55.7304 193.785 55.8621C193.977 55.6346 194.121 55.443 194.181 55.3951L194.217 55.3711L193.042 54.5329L192.515 54.1736L191.472 53.4312L190.441 52.6649L189.506 51.9344C189.242 51.7548 188.991 51.5512 188.751 51.3357C187.852 50.5693 187.732 50.2939 187.684 50.2101C187.648 50.1263 187.72 50.2221 187.624 50.6651C187.72 50.1981 187.66 50.1742 187.672 50.1862C187.696 50.2581 187.696 50.2341 187.744 50.3299C187.792 50.4137 187.84 50.4735 187.876 50.5095C187.96 50.6053 188.044 50.7131 187.96 50.6053C187.912 50.5574 187.876 50.5095 187.828 50.4496C187.78 50.4137 187.696 50.2461 187.684 50.2461L187.696 50.2581Z" fill="#9D5D2C"/>
<path d="M177.112 122.667C177.471 121.817 177.543 121.422 177.531 121.183C177.4 121.662 177.232 122.177 177.064 122.691L177.1 122.655L177.112 122.667Z" fill="#9D5D2C"/>
<path d="M178.071 107.376C178.071 107.376 178.095 107.424 178.095 107.447C178.095 107.412 178.095 107.388 178.095 107.364L178.059 107.388L178.071 107.376Z" fill="#9D5D2C"/>
<path d="M176.716 124.464C176.716 124.607 176.716 124.763 176.764 124.883C176.956 124.511 176.872 124.452 176.716 124.464Z" fill="#9D5D2C"/>
<path d="M202.811 80.7929C202.871 80.8527 202.931 80.9006 203.015 80.9964C202.943 80.9006 202.883 80.8408 202.811 80.7929Z" fill="#9D5D2C"/>
<path d="M177.136 108.023L178.071 107.376C178.011 107.22 177.951 107.065 177.867 106.861C177.412 106.526 177.112 107.544 177.136 108.023Z" fill="#9D5D2C"/>
<path d="M176.716 124.464C176.716 123.973 176.872 123.362 177.076 122.703L176.393 123.242C175.949 124.128 175.901 124.464 176.057 124.547C176.201 124.631 176.537 124.476 176.716 124.464Z" fill="#9D5D2C"/>
<path d="M175.997 72.4586C175.386 72.7939 175.769 70.7223 175.074 71.7162L175.29 73.1651C175.026 72.8059 174.283 73.1891 173.899 73.1412C174.391 73.9315 175.781 72.3987 176.105 74.135C176.381 74.638 175.829 75.548 175.482 75.9671C176.165 74.9732 176.129 76.3263 176.177 76.8891C175.554 77.3921 175.182 78.5176 174.559 78.5895C174.679 78.7691 174.523 79.3319 174.283 79.6432L174.031 79.5594C173.863 80.4575 174.391 79.4038 174.547 79.7271C174.355 80.3378 173.408 80.9844 173 81.9423C173.396 80.9844 173.444 80.0504 173.492 79.2481C172.245 80.7569 172.401 78.362 171.958 77.6555C171.586 79.1883 171.778 79.9306 171.67 81.2598C170.519 82.4093 169.92 80.3258 170.016 79.9306C169.776 81.3676 169.968 83.0679 169.932 83.8702C169.392 82.4931 169.009 82.5171 168.625 81.2957C167.606 82.086 168.194 82.601 168.338 83.2596C168.374 82.9362 168.517 82.4573 168.745 82.4333C168.122 83.6308 169.692 84.0738 170.064 84.9839C169.273 85.7143 168.35 87.3667 167.523 86.8878L168.469 87.271C168.254 88.4325 167.762 87.6302 167.379 87.6661C167.858 88.3367 168.973 88.205 168.517 90.1089C167.103 89.2228 167.75 91.6656 166.384 91.0788C166.156 91.9769 166.779 92.6475 166.3 93.4857C165.137 94.1922 164.897 91.4261 165.341 90.9711C165.772 89.7018 165.916 91.3782 166.096 90.8753L166.132 89.5222C165.569 90.061 164.742 91.2465 164.166 90.8513C163.998 92.1805 165.197 90.1209 165.065 91.5937L164.406 92.2643C164.286 93.7371 165.581 92.3721 165.149 94.1922C164.873 92.7792 164.478 96.0841 163.495 95.6291C164.754 96.132 162.62 98.8503 163.567 99.5567L164.154 98.7185L163.507 98.7425C163.783 97.7127 163.723 96.7547 164.298 95.7848C164.502 96.7667 165.473 95.8806 165.581 96.9583C165.76 98.982 164.73 97.2098 164.658 97.4612L164.897 99.1137L165.749 98.3233C165.629 99.4968 165.209 101.018 164.694 102.526C163.291 104.586 164.046 102.035 162.86 103.472C162.944 104.299 163.315 104.179 162.944 105.221C163.459 104.742 163.052 104.167 163.207 103.784C164.178 103.508 163.087 105.76 163.915 105.867C163.495 106.227 163.183 106.059 162.92 105.628C162.752 107.532 162.344 109.124 161.146 109.555L162.009 110.537C161.038 113.435 161.493 108.286 160.33 110.657C160.019 111.675 159.851 112.705 160.175 113.244L160.39 112.357C160.81 113.16 161.218 113.196 161.361 114.369C161.098 115.124 160.498 114.573 160.87 115.626C159.803 117.878 159.144 116.046 158.281 115.471C157.382 117.111 156.507 114.201 156.699 115.471L156.998 115.195L157.969 117.255L158.904 114.824V114.884L158.928 114.848L157.993 117.267C159.443 115.818 157.07 116.405 158.341 115.962L158.64 114.968C159.024 115.291 158.64 116.596 158.64 117.399L159.491 115.195C159.228 115.758 159.096 116.285 159.204 116.477C158.976 116.429 158.664 115.902 158.952 114.872L158.029 117.279C157.945 117.075 157.921 116.812 157.969 116.489L156.567 116.872C156.567 116.872 156.543 116.956 156.531 116.992L157.645 114.082C156.89 115.363 157.082 116.776 156.279 117.854C155.883 118.764 155.692 118.907 155.56 118.668C155.416 118.44 155.38 117.818 155.332 117.447C155.296 117.063 155.224 116.848 154.996 117.327C154.889 117.554 154.721 118.021 154.577 118.776C154.445 119.566 154.289 120.728 154.529 122.428C154.805 124.296 155.5 125.805 156.159 126.858C156.842 127.936 157.466 128.571 158.041 129.098L166.743 137.085L172.461 129.517C173.768 127.781 173.456 126.882 174.834 125.17C174.427 125.254 174.055 125.877 173.408 126.607C173.672 125.577 172.353 126.679 173.06 125.218C173.672 125.122 174.403 124.428 175.014 123.542C175.626 122.655 176.069 121.638 176.393 120.835C176.656 121.434 177.507 120.596 177.555 121.195C177.795 120.308 177.891 119.626 177.639 119.195C176.788 120.512 176.896 119.734 176.98 118.907C177.052 118.105 177.076 117.351 176.321 118.129C176.513 117.638 176.692 117.327 176.884 117.039C177.076 116.74 177.28 116.501 177.495 116.309C177.915 115.902 178.335 115.603 178.766 115.076C178.994 115.243 178.49 117.554 179.449 115.914C179.281 113.567 178.131 115.83 177.639 113.878L176.908 115.04C175.805 114.812 177.4 112.753 177.28 112.333C177.807 111.651 177.208 113.531 178.179 113.028C178.814 111.938 178.346 111.112 178.994 110.513C179.461 111.495 179.329 110.932 179.689 111.986C180.612 109.22 180.468 112.429 181.631 110.477C181.727 109.759 180.96 109.962 181.487 108.945C180.504 109.304 180.276 109.136 179.665 110.861C178.754 109.855 180.708 108.669 180.444 107.22C180.025 108.166 180.121 107.448 179.929 108.562C178.946 108.382 178.67 108.717 178.131 107.46C177.999 108.669 178.838 109.508 178.023 111.028C176.932 111.136 177.963 108.789 176.74 108.334C176.393 107.316 177.567 105.568 178.323 104.825C178.095 102.981 178.694 101.149 177.999 99.6046C178.73 98.6347 178.67 95.5333 179.761 93.5695C180.42 93.4498 181.056 91.1626 181.187 92.6475C181.079 92.396 181.607 90.6477 180.948 90.9112C181.055 91.1507 180.84 91.2944 180.732 91.6775L180.18 91.0908C180.828 90.1927 180.384 88.7558 181.151 87.9415C181.811 87.8338 180.828 89.8814 181.715 89.4743C181.044 88.1691 182.014 84.2415 182.877 83.1877C183.309 82.4333 184.196 82.6369 184.412 82.3375L184.831 80.9485C185.167 80.8886 185.491 80.9844 185.934 80.8407C186.366 80.23 186.246 79.6672 186.234 79.1882C187.408 77.5717 187.768 78.7691 188.02 79.9067L187.372 80.8287C187.492 81.7148 186.953 82.7206 187.948 82.3734C188.044 81.8226 187.72 81.7268 187.6 81.4753L188.259 81.0323C188.14 80.3138 188.535 78.5656 187.876 78.5416C188.727 77.452 188.679 75.8593 189.53 74.9014C188.895 75.536 188.955 74.4943 188.415 74.5661L187.804 75.8354C187.984 74.7218 188.02 73.0573 188.739 72.1712C189.087 72.4107 189.194 72.4945 189.734 72.0994C189.35 72.3987 189.338 71.812 189.242 71.4767C189.146 71.1414 189.003 70.854 188.475 71.3809C188.511 72.0035 188.427 72.5783 188.14 73.2968C187.157 73.5243 187.42 72.3269 187.157 71.5365C187.193 71.0695 187.241 70.5427 187.325 69.896C187.408 69.2614 187.516 68.5549 187.552 67.9682C187.984 67.3575 188.991 67.4772 188.835 66.0523C188.188 66.7109 187.984 66.2319 187.84 65.5254C187.708 64.807 187.552 63.8489 187.169 63.5975C187.612 62.7832 187.169 62.1246 187.121 61.5139C187.109 61.2864 187.121 61.0589 187.253 60.7835C187.372 60.9152 187.516 61.1667 187.576 61.49C187.744 62.2085 187.708 63.2143 188.08 63.6095C188.643 63.7891 189.842 63.3221 189.602 65.5733C190.105 64.304 190.022 63.8729 189.866 63.6454C189.698 63.4179 189.446 63.3461 189.386 62.7593C189.386 63.0467 189.374 63.3341 189.338 63.6334C189.159 63.2263 188.571 63.8729 188.691 63.1424C188.847 62.4599 188.955 61.8971 189.051 61.4181C189.171 60.6877 189.17 60.113 189.314 59.5981L189.338 59.5142H189.362H189.266C189.147 59.5382 189.027 59.5501 188.895 59.5621L188.655 59.5861C188.499 59.5861 188.343 59.5861 188.283 59.5861C188.236 59.5861 188.2 59.586 188.152 59.5621H188.092C187.936 59.5022 188.224 59.5262 188.667 60.2207C188.415 59.8734 188.547 60.0171 188.751 60.3764L185.215 58.5922C185.395 58.8915 185.551 59.3227 185.61 59.61C185.527 60.7237 185.251 60.7835 184.843 60.7715C184.46 60.7476 183.98 60.6039 183.729 61.4301C184.496 62.1007 184.819 63.346 185.071 62.7712C185.359 63.4658 184.987 63.2023 185.023 63.7532C185.67 63.9687 186.174 64.34 186.485 65.0824C186.21 65.1063 185.814 65.214 185.598 64.3519C185.802 65.3458 185.023 65.9086 184.424 65.8128C184.352 65.3578 184.232 64.8069 184.1 64.2202C183.645 63.9567 183.753 64.3878 183.896 64.8668C184.04 65.3457 184.172 65.8008 183.872 65.8966C183.489 65.3937 183.597 64.6871 183.249 64.268C183.045 64.6393 183.249 65.1302 183.537 65.5493C183.824 65.9804 184.136 66.2678 184.268 66.5192C184.604 67.6808 183.836 67.5012 183.525 67.6448C185.239 69.1536 183.788 65.0583 185.383 66.4354C186.354 66.8306 186.917 68.6148 187.528 69.8122C187.936 68.4352 188.715 69.5009 189.482 70.6983C188.871 68.9979 190.261 69.9081 188.991 68.1358L189.626 67.8604C189.926 68.7106 190.022 69.8122 190.321 70.6624C190.081 70.5547 190.01 70.8061 189.794 70.5666L191.052 72.9855L190.525 72.8896C191.052 74.4822 191.412 76.6257 192.095 77.4519C191.688 76.7215 192.011 75.7995 192.551 76.494C193.03 76.8293 193.713 77.4878 194.001 78.2063C193.438 78.9248 194.936 81.5472 193.306 80.2659C194.888 82.2178 194.54 81.3077 196.135 83.0081L195.176 81.8346C195.619 81.3556 197.166 81.8585 196.782 80.4335C197.993 81.6549 198.4 80.1702 199.683 81.9783C199.839 82.9362 198.448 82.4333 197.657 81.4394C197.945 82.0022 197.945 82.6728 198.664 82.9961C198.472 83.6786 197.249 82.4692 197.106 82.6369C197.681 83.6427 197.381 82.4452 198.113 83.2715C199.743 84.4809 197.861 84.8761 199.263 86.1573C199.012 85.846 198.784 85.1395 199.299 85.367C200.678 87.4026 200.594 86.1334 201.888 87.3668C201.769 88.7079 200.69 88.9713 201.565 90.3963L200.989 89.6658C201.025 90.4681 201.349 91.1746 201.804 91.6775C203.087 92.6115 204.454 93.3181 205.772 93.8689C206.431 94.1563 207.139 94.4557 207.846 94.6353C208.529 94.8388 209.344 94.8148 209.62 94.4436L209.26 94.9226C209.176 94.5874 209.092 94.252 208.961 93.9048C209.08 94.2401 209.14 94.5634 209.188 94.9107L209.584 94.3838H209.572C209.476 94.3239 209.488 94.2521 209.5 94.1802L208.984 94.8747C208.853 94.6472 208.745 94.0964 208.481 94.1204C208.613 93.9168 208.709 93.6892 208.805 93.4497C208.445 93.4258 208.397 93.833 208.241 94.1084C208.121 94.4197 207.93 94.5873 207.618 94.4556C207.714 94.4197 207.714 94.264 207.654 94.1682C207.606 94.3239 207.534 94.4437 207.462 94.5395C207.594 94.1682 207.282 93.7132 207.007 93.2941C206.743 92.8631 206.539 92.4319 206.815 91.7374C207.402 92.9468 207.834 92.863 208.361 92.8271C208.841 92.7912 209.524 92.6834 209.848 94.1922C209.668 93.4019 209.764 93.318 210.051 93.3779C210.315 93.4378 210.687 93.7252 210.818 93.6174C210.782 92.6235 210.255 93.2342 210.207 92.1924C210.435 92.1326 210.842 92.5996 211.118 93.0546C211.418 93.4857 211.658 93.8449 211.753 93.2342C211.01 93.2103 210.938 92.2045 210.291 91.941C210.231 91.1507 210.747 91.8093 210.854 91.4022C210.675 90.9831 210.267 90.8872 210.219 90.4921L210.759 90.5879C210.459 88.3367 209.871 90.2526 208.961 88.0852C208.397 88.3367 208.865 88.8636 209.416 89.6778C208.445 90.6717 206.755 87.7979 205.556 88.7079C204.286 86.9956 206.335 88.9114 205.736 87.1632C206.012 85.834 207.258 87.8218 208.049 87.9056L207.594 85.9777C208.925 85.9178 209.2 87.1273 210.303 86.9117C209.62 85.6185 209.452 85.9178 208.385 84.924C208.757 87.3308 207.246 84.433 206.911 86.1334C206.647 85.0677 206.983 85.2234 206.335 83.9421C206.971 84.6366 207.186 83.5349 207.774 84.5767C206.827 82.9841 206.839 83.4751 205.892 81.643C204.861 81.3915 205.784 84.0139 204.19 81.9663C203.962 81.4753 204.286 81.4394 204.418 81.7388C203.974 79.9666 203.626 82.5051 202.775 81.643C202.356 80.9724 202.536 80.5773 202.859 80.7928C201.948 79.9067 201.721 80.7329 201.217 80.0863L201.277 80.4575C200.917 80.2539 200.21 81.5712 199.467 80.0504C198.964 78.9248 199.551 79.0804 199.791 78.9487C199.131 78.1943 199.059 77.416 199.047 76.6975C198.928 76.8292 198.748 76.8292 198.628 76.5658C197.717 75.1888 198.88 75.4282 198.748 74.8175C198.172 72.5424 197.465 75.7157 196.362 73.3806L197.357 76.2186C196.938 76.2665 196.351 76.4581 196.626 77.0448C197.214 76.8532 198.125 77.6076 198.448 78.5655C197.921 79.1163 196.626 76.4341 196.614 78.2901C196.482 77.6914 195.955 77.0089 195.703 76.3024C196.698 76.6736 194.852 74.0631 196.159 74.8894C194.636 72.0035 194.912 71.3569 193.15 68.9141C193.677 68.9501 195.583 70.1595 195.919 71.7162L195.583 72.0036C196.866 73.5602 195.38 70.4229 196.183 70.4469C194.133 68.7585 194.397 65.3937 192.707 62.9749C192.599 63.6335 192.131 63.1904 191.724 63.2622C192.347 64.304 192.383 64.0166 192.323 64.9985C191.772 65.0943 191.652 64.3998 191.148 64.2441C190.489 64.2441 191.52 65.0105 191.424 65.5134C190.657 64.6752 190.645 64.8548 189.914 64.4477C190.045 63.6454 190.321 63.6095 190.573 62.9269C189.41 60.2806 188.595 61.035 187.756 58.8437C188.224 60.0531 188.032 58.0414 188.475 59.3825L188.2 58.652C189.854 60.089 191.328 63.1784 192.431 62.2324C191.604 60.8434 190.381 60.1369 189.482 58.3527L189.758 58.3168C189.182 56.9996 189.458 58.4844 189.087 58.2808C188.068 57.1672 189.123 56.1015 188.367 55.4788L188.212 55.0358C188.14 54.9879 188.056 54.928 187.924 54.8921L187.948 55.1076L188.128 55.5866L188.547 56.832C187.48 55.9578 188.619 57.2031 187.636 57.3229C187.337 57.0115 187.061 56.6284 186.773 56.1973L186.521 55.5028C186.162 54.9041 185.886 54.3293 185.275 53.8503L185.838 54.3413L185.742 54.2934C185.742 54.2934 185.73 54.3413 185.814 54.1976L186.186 53.6228L186.821 52.5571C186.989 52.2697 187.145 51.9703 187.277 51.659C187.396 51.4315 187.492 51.2279 187.564 51.0004C187.708 50.6053 187.744 50.3418 187.732 50.2101C187.732 50.1382 187.684 50.1382 187.852 50.3777C187.888 50.4376 187.936 50.4735 187.984 50.5334C188.068 50.6292 188.152 50.725 188.248 50.8208L188.391 50.9525L188.463 51.0124L188.607 51.1441C188.799 51.3117 188.991 51.4794 189.182 51.635L189.482 51.8625L189.662 51.9942L190.057 52.3056L190.861 52.9163L191.268 53.2157L191.424 53.3235C191.424 53.3235 191.436 53.3354 191.424 53.3833C191.424 53.4312 191.34 53.5868 191.28 53.7186C191.4 53.6587 191.532 53.551 191.592 53.551L191.688 53.527C191.688 53.527 191.7 53.539 191.712 53.551C191.7 53.551 191.748 53.5869 191.688 53.551L191.124 53.1438C190.753 52.8684 190.393 52.593 190.034 52.3176L189.566 51.9584L189.362 51.8147C189.099 51.6111 188.847 51.4075 188.607 51.192L188.439 51.0363L188.343 50.9645L188.164 50.7968L187.9 50.4974C187.348 49.8388 188.415 50.0664 186.557 53.036C187.408 51.7069 187.648 50.7729 187.684 50.6292C187.708 50.4855 187.708 50.4376 187.696 50.5094C187.696 50.5453 187.696 50.6172 187.66 50.713C187.612 50.8448 187.564 51.0124 187.504 51.204C187.444 51.3716 187.372 51.5273 187.289 51.671C187.193 51.8745 187.085 52.114 186.977 52.3296C186.857 52.5451 186.737 52.7486 186.605 52.9642C186.45 53.2516 186.282 53.539 186.102 53.8144C185.742 54.3772 185.395 54.8322 184.855 55.6465L184.088 56.7122C183.896 56.9636 183.944 56.8918 183.944 56.8918L183.045 56.0896V56.1254L182.278 56.8559L182.206 56.9277L183.297 57.742C184.1 56.7601 184.879 55.6465 185.503 54.7125C185.778 54.3413 186.03 53.958 186.27 53.5629L186.605 52.9762L186.869 52.5571C186.929 52.4493 187.073 52.2098 187.229 51.8506C187.313 51.647 187.372 51.5632 187.444 51.3836C187.516 51.2399 187.576 51.0243 187.624 50.8686C187.672 50.7489 187.708 50.6172 187.72 50.4616C187.744 50.3897 187.744 50.2819 187.72 50.234C187.72 50.1742 187.684 50.234 187.912 50.5094L188.128 50.7609C188.224 50.8567 188.319 50.9525 188.427 51.0363C188.763 51.3476 189.206 51.7308 189.602 52.0062C190.633 52.8325 191.712 53.6228 192.731 54.3173L193.114 54.5808L194.744 55.7303V55.7662C194.696 55.874 194.6 56.1254 194.72 56.2691L194.936 55.9219L194.96 55.874V55.862L193.881 55.0957L193.042 54.4969L192.695 54.2694L191.34 53.3115L189.278 51.7428C189.111 51.6111 188.955 51.4794 188.799 51.3477C188.655 51.2279 188.451 51.0244 188.403 50.9884C188.248 50.8687 188.092 50.6891 187.984 50.5454C187.912 50.4735 187.84 50.3777 187.792 50.2939C187.732 50.1981 187.732 50.1502 187.756 50.222C187.78 50.2699 187.756 50.2221 187.84 50.3777C187.876 50.4496 187.924 50.4974 187.996 50.5693C188.104 50.713 188.236 50.8447 188.391 50.9764C188.439 51.0124 188.619 51.18 188.775 51.3118C188.931 51.4555 189.099 51.5871 189.278 51.7189C189.374 51.7668 190.621 52.7726 191.592 53.4672C192.095 53.8384 192.623 54.1976 193.162 54.5568L195.416 56.1494C195.416 56.1494 195.428 56.1733 195.38 56.2691C195.284 56.4727 194.924 57.0355 194.648 57.4546C195.032 57.2271 195.452 56.808 195.655 56.5805C195.703 56.5326 195.787 56.4248 195.775 56.4488L195.799 56.4248L195.176 55.9818L193.546 54.8322C193.114 54.5328 192.695 54.2454 192.263 53.9461C191.64 53.503 191.016 53.048 190.393 52.5691C190.01 52.2697 189.614 51.9703 189.218 51.671C188.979 51.4794 188.751 51.2878 188.523 51.0723C188.379 50.9405 188.284 50.8687 188.164 50.7369C187.756 50.3298 187.744 50.0903 187.768 50.222C187.768 50.1981 187.78 50.3178 187.768 50.3538L187.732 50.5813C187.72 50.689 187.684 50.7848 187.648 50.8806C187.612 51.0123 187.552 51.192 187.492 51.3357C187.025 52.5331 185.598 54.8202 183.333 57.7181L182.146 56.9876C182.278 56.8559 182.41 56.7481 182.506 56.6643C182.542 56.6404 182.602 56.5924 182.65 56.5565C182.674 56.5326 182.674 56.5326 182.674 56.5446C182.65 56.5446 182.578 56.6164 182.638 56.5685C182.997 56.2572 183.249 56.1614 183.285 56.1973C183.141 56.2811 182.937 56.3889 182.686 56.5326C182.626 56.5566 182.698 56.5326 182.734 56.5086C182.602 56.5685 182.578 56.5805 182.554 56.6044C182.518 56.6164 182.482 56.6404 182.41 56.6643C182.338 56.6883 182.242 56.7241 182.074 56.784C182.038 56.784 182.026 56.796 181.955 56.82L182.446 58.1851C182.65 58.8557 183.609 60.6878 182.794 60.8913C183.429 61.2027 184.136 60.2327 185.059 62.0168C185.479 61.2744 184.604 59.2388 185.934 60.2566L185.083 59.5861C184.771 58.209 185.91 59.622 185.383 57.8857C185.574 58.3767 186.39 59.179 186.042 59.61C187.181 58.5683 187.876 61.6936 188.895 61.2864C188.667 61.8372 188.859 62.3162 189.398 63.1544C188.979 63.2143 188.871 63.8729 188.283 63.3101C188.116 62.6874 187.768 62.3521 187.756 61.5738C186.593 62.5557 188.463 64.1004 188.895 65.6571C188.907 65.4176 189.003 65.2979 189.374 65.5733C189.566 66.4474 190.249 68.4112 189.35 68.1957L191.532 72.3508C191.232 72.5184 191.112 71.8 190.897 71.5964L191.975 74.0033C191.808 74.7577 191.172 73.3806 190.645 73.3327L191.472 75.045L190.945 74.9972C191.412 75.2965 192.455 77.2483 191.999 78.0387C193.066 79.8707 194.433 79.2122 195.008 82.122C194.277 82.3255 194.097 80.7329 193.378 80.3258C193.378 80.9365 194.564 82.2896 194.037 82.8524C195.284 84.5767 196.398 83.8223 197.489 84.445C198.244 85.9777 196.986 84.8761 196.818 85.0318C196.986 85.5107 198.58 85.7023 197.861 86.5405C198.7 87.0674 199.479 87.2231 199.191 86.0017C199.287 86.2052 199.407 86.4327 199.551 86.6483C199.731 86.8997 199.911 87.1632 200.078 87.4027C200.498 87.9655 200.857 88.2409 201.073 88.3008C199.683 88.0732 201.289 89.5701 200.546 90.061C200.833 90.7436 201.277 91.7015 201.757 92.4439C202.236 93.1983 202.751 93.7252 203.423 93.8329C203.015 93.9168 202.62 94.0006 202.224 94.0964L202.572 94.6592C202.26 94.8627 202.044 94.8508 201.912 94.779C201.745 94.6592 201.589 94.2999 201.433 94.0724C201.613 94.5754 201.709 94.9107 201.709 94.9346C201.709 94.9346 201.709 94.9585 201.721 94.9585C201.804 94.9465 201.852 94.9226 201.912 94.9107C202.152 94.8508 202.392 94.7909 202.632 94.743C203.099 94.6472 203.686 94.5993 203.998 94.5395C204.346 94.4796 204.813 94.4916 205.113 94.4916C205.377 94.4796 205.664 94.4916 205.952 94.5514L209.356 93.8329C209.356 93.8329 209.284 93.7491 209.38 93.2462C209.32 93.6653 209.356 93.6533 209.344 93.7012C209.344 93.7132 209.344 93.7012 209.344 93.7731C209.308 93.6174 209.344 92.9588 209.812 91.9171C210.039 91.4022 210.375 90.8034 210.795 90.1089C211.034 89.7377 211.274 89.3905 211.502 89.0312L211.694 88.7558C211.765 88.66 211.717 88.7319 211.729 88.7199H211.706C211.777 88.6002 211.873 88.4924 211.945 88.4086L211.993 88.3487C211.993 88.3487 212.089 88.2289 211.885 88.5163C211.646 88.8276 211.346 89.2587 210.998 89.7975C211.274 89.3545 211.586 88.9115 211.909 88.4684L212.053 88.2649C212.053 88.2649 212.053 88.2768 212.029 88.2649C211.969 88.2649 211.897 88.2289 211.789 88.1571C212.053 87.8936 212.125 87.7021 212.233 87.5943C212.305 87.4746 212.581 87.5105 212.736 87.3668C212.712 87.3907 212.521 87.3668 212.233 87.2111C212.065 86.9956 211.861 86.7321 211.909 86.6722C211.945 86.6004 211.981 86.5405 212.161 86.6004C212.533 86.7201 212.868 86.804 213 86.7441L212.353 86.0615C212.197 85.8819 212.029 85.7143 211.873 85.5227C211.202 85.4269 211.634 86.2172 210.735 85.6065C210.219 84.1217 208.781 82.7327 207.846 81.0203L208.062 82.5172C207.546 81.4874 206.707 82.3375 206.072 82.3375C205.532 81.3676 204.633 80.0983 204.37 79.0924C205.46 79.739 205.94 78.8769 205.832 77.7274C204.693 75.6917 203.818 76.7335 202.847 75.9192C204.561 75.9432 202.596 74.4463 203.399 74.2308C202.164 72.0035 200.606 69.5129 199.479 66.4235C199.299 66.5552 199.419 67.5131 199.012 67.0581C198.364 66.0163 198.724 65.238 198.94 64.9746C198.244 63.5137 197.465 62.7593 196.854 62.4C197.25 63.0347 197.07 63.1664 196.65 63.1784C196.291 62.424 196.374 62.0648 196.398 61.7295C196.398 61.3104 196.291 60.8793 195.655 60.3045C195.931 59.9692 196.195 60.2806 196.506 60.7476C196.662 60.9751 196.83 61.2745 197.01 61.4781C197.154 61.6217 197.309 61.6697 197.465 61.5619C196.77 59.6819 196.135 59.2388 195.547 58.7718C195.955 58.4485 195.883 59.2867 196.087 58.664C195.883 58.3886 195.715 58.197 195.595 58.1611C195.571 58.1611 195.571 58.1611 195.559 58.1611L195.032 58.2689C194.6 58.3647 194.229 58.4365 193.821 58.4844C193.498 58.5443 193.174 58.5802 192.862 58.5922C192.611 58.6161 192.359 58.6281 192.119 58.6281L183.776 52.126C183.405 52.3655 183.057 52.6289 182.734 52.9043C182.314 53.2755 181.967 53.6228 181.583 54.0779C180.816 55.0119 180.156 56.2931 179.893 57.4905C179.737 58.1252 179.701 58.6042 179.665 59.143C179.653 59.61 179.665 60.0171 179.713 60.4003L179.785 60.8673C179.809 61.011 179.845 61.2026 179.857 61.2146C179.881 61.2864 179.929 61.466 179.941 61.4421C180.073 61.5978 180.216 61.7414 180.276 61.8732V61.8851C180.049 61.945 179.833 61.9929 179.605 62.0408C179.629 62.3402 179.725 62.5557 179.989 62.7712C179.677 62.891 179.569 62.7114 179.509 62.5557C179.473 62.6515 179.461 62.7593 179.485 62.8671C179.485 63.0227 179.449 63.358 179.437 63.6214C179.389 64.1962 179.341 64.771 179.246 65.1422C178.91 64.8908 179.425 64.4357 179.186 64.1363C178.874 64.8189 178.802 65.8128 178.658 66.8546C178.586 67.3575 178.478 67.9442 178.335 68.4232C178.227 68.7824 178.047 69.0938 177.759 69.2853C177.699 69.1177 177.723 68.9501 177.771 68.8064C177.004 71.1654 176.776 73.3926 175.937 76.015C174.355 78.1464 176.644 77.1286 175.697 79.4517C174.031 78.853 174.427 82.6368 173.744 83.523L174.103 83.2954C174.343 84.7084 173.132 86.1095 172.365 86.7681C171.61 88.5163 170.627 91.2106 170.639 93.2822L170.411 92.7912C170.315 94.4556 169.44 95.1981 169.357 96.8745C169.249 96.7907 169.237 96.144 168.913 96.6948C168.529 97.5809 168.17 98.503 167.834 99.4131C167.511 100.287 167.211 101.173 166.923 102.071C166.348 103.856 165.82 105.664 165.317 107.484C164.79 109.316 164.334 111.088 163.735 112.956C163.135 114.824 162.62 116.213 162.081 116.896C161.865 117.183 161.661 117.375 161.457 117.554L167.81 119.758C167.091 120.488 166.6 120.44 167.019 120.404C167.403 120.368 168.577 120.644 170.088 121.578L170.855 122.045L171.358 119.901C172.089 116.764 172.833 113.507 173.552 110.178C174.307 107.077 175.278 103.796 176.273 100.634C178.299 94.264 180.672 88.0373 182.782 82.3495C182.782 82.3495 181.835 80.0623 180.564 77.6674C179.281 75.2726 177.663 72.7699 176.093 72.5304L175.997 72.4586Z" fill="#9D5D2C"/>
<path d="M204.382 81.7388C204.394 81.7987 204.418 81.8585 204.43 81.9424C204.43 81.8585 204.406 81.7987 204.382 81.7388Z" fill="#9D5D2C"/>
<path d="M197.357 81.0443C197.429 81.188 197.525 81.3077 197.621 81.4394C197.549 81.2958 197.465 81.164 197.357 81.0443Z" fill="#9D5D2C"/>
<path d="M189.326 62.7713C189.326 62.5318 189.326 62.2923 189.314 62.0528C189.302 62.3642 189.314 62.5917 189.326 62.7713Z" fill="#9D5D2C"/>
<path d="M178.179 106.011C178.73 105.951 179.21 107.412 179.953 106.562C181.175 103.125 178.586 104.394 179.881 101.006L178.73 102.562C179.617 102.742 179.665 104.167 179.269 105.58L178.502 105.784C178.394 105.484 178.334 105.185 178.299 104.873C178.047 105.364 178.574 105.436 178.179 106.011Z" fill="#9D5D2C"/>
<path d="M178.358 104.742L178.287 104.813C178.287 104.813 178.287 104.849 178.287 104.861C178.31 104.825 178.322 104.789 178.358 104.742Z" fill="#9D5D2C"/>
</g>
<defs>
<filter id="filter0_d_49_4327" x="0" y="0.0851135" width="217" height="200" filterUnits="userSpaceOnUse" color-interpolation-filters="sRGB">
<feFlood flood-opacity="0" result="BackgroundImageFix"/>
<feColorMatrix in="SourceAlpha" type="matrix" values="0 0 0 0 0 0 0 0 0 0 0 0 0 0 0 0 0 0 127 0" result="hardAlpha"/>
<feOffset dy="4"/>
<feGaussianBlur stdDeviation="2"/>
<feComposite in2="hardAlpha" operator="out"/>
<feColorMatrix type="matrix" values="0 0 0 0 0 0 0 0 0 0 0 0 0 0 0 0 0 0 0.25 0"/>
<feBlend mode="normal" in2="BackgroundImageFix" result="effect1_dropShadow_49_4327"/>
<feBlend mode="normal" in="SourceGraphic" in2="effect1_dropShadow_49_4327" result="shape"/>
</filter>
</defs>
</svg>
