<svg width="100" height="100" viewBox="0 0 100 100" fill="none" xmlns="http://www.w3.org/2000/svg">
<path d="M24.8165 7C15.0236 7 7 15.0236 7 24.8165V74.1835C7 83.9764 15.0236 92 24.8165 92H74.1835C83.9764 92 92 83.9764 92 74.1835V24.8165C92 15.0236 83.9764 7 74.1835 7H24.8165ZM24.8165 14.7273H74.1835C79.7988 14.7273 84.2727 19.2012 84.2727 24.8165V74.1835C84.2727 79.7988 79.7988 84.2727 74.1835 84.2727H24.8165C19.2012 84.2727 14.7273 79.7988 14.7273 74.1835V24.8165C14.7273 19.2012 19.2012 14.7273 24.8165 14.7273ZM53.3636 22.4545V61.0909C53.3636 65.4053 49.9508 68.8182 45.6364 68.8182C41.322 68.8182 37.9091 65.4053 37.9091 61.0909C37.9091 56.7765 41.322 53.3636 45.6364 53.3636V45.6364C37.1467 45.6364 30.1818 52.6012 30.1818 61.0909C30.1818 69.5806 37.1467 76.5455 45.6364 76.5455C54.1261 76.5455 61.0909 69.5806 61.0909 61.0909V37.479C64.2894 39.9559 68.0813 41.7113 72.4026 41.7727L72.5158 34.0455C66.1552 33.9551 61.0909 28.8459 61.0909 22.4545H53.3636Z" fill="white"/>
</svg>
