<svg xmlns="http://www.w3.org/2000/svg"  viewBox="0 0 24 24" width="24px" height="24px"><path d="M 4.9394531 3 L 3 4.9394531 L 3 19.060547 L 4.9394531 21 L 19.060547 21 L 19.28125 20.78125 L 21 19.060547 L 21 4.9394531 L 19.060547 3 L 4.9394531 3 z M 5.5605469 4.5 L 18.439453 4.5 L 19.5 5.5605469 L 19.5 18.439453 L 18.4375 19.5 L 5.5605469 19.5 L 4.5 18.439453 L 4.5 5.5605469 L 5.5605469 4.5 z M 12.5 7 L 12.5 14.005859 C 12.493977 14.840202 11.835948 15.5 11 15.5 C 10.160221 15.5 9.4960937 14.835873 9.4960938 13.996094 C 9.4960938 13.156315 10.160221 12.492187 11 12.492188 L 11 10.992188 C 9.3497791 10.992188 7.9960937 12.345873 7.9960938 13.996094 C 7.9960937 15.646315 9.3497791 17 11 17 C 12.443619 17 13.501164 15.891531 13.783203 14.527344 C 13.783203 14.527344 13.783203 14.525391 13.783203 14.525391 C 13.823323 14.330727 14.003906 14.202048 14.003906 13.996094 L 14.003906 12.185547 L 14 12.189453 L 14 10.919922 C 14.75197 11.598268 15.785382 12 17 12 L 17 10.5 C 15.914728 10.5 15.236506 10.144317 14.755859 9.5546875 C 14.275212 8.9650577 14 8.0777542 14 7 L 12.5 7 z"/></svg>