<svg width="100" height="100" viewBox="0 0 100 100" fill="none" xmlns="http://www.w3.org/2000/svg">
<path d="M15.5518 18.8232C10.4004 18.8232 6.17676 23.0469 6.17676 28.1982V71.9482C6.17676 77.0996 10.4004 81.3232 15.5518 81.3232H84.3018C89.4287 81.3232 93.6768 77.0996 93.6768 71.9482V28.1982C93.6768 23.0469 89.4531 18.8232 84.3018 18.8232H15.5518ZM15.5518 25.0732H84.3018C86.0596 25.0732 87.4268 26.4404 87.4268 28.1982V71.9482C87.4268 73.7061 86.0596 75.0732 84.3018 75.0732H15.5518C13.7939 75.0732 12.4268 73.7061 12.4268 71.9482V28.1982C12.4268 26.4404 13.7939 25.0732 15.5518 25.0732ZM37.5 31.2012V68.8232L68.75 50L37.5 31.2012ZM43.75 42.2363L56.6406 50L43.75 57.7637V42.2363Z" fill="white"/>
</svg>
